<svg id="Layer_1" data-name="Layer 1" xmlns="http://www.w3.org/2000/svg" viewBox="0 0 200.5 181.9"><defs><style>.cls-1{fill:#fff;}</style></defs><title>art</title><path class="cls-1" d="M53,155.3a13.6,13.6,0,1,1,.2,0H53M29.7,106.6A13.6,13.6,0,1,1,43.2,93.1a13.6,13.6,0,0,1-13.6,13.6M53.1,65A13.6,13.6,0,1,1,66.6,51.5,13.6,13.6,0,0,1,53.1,65M97.2,30.9h0a13.6,13.6,0,0,1,13.6,13.5h0A13.6,13.6,0,1,1,97.2,30.9M86.3,9.3A151.8,151.8,0,0,0,64.6,11c-25.9,3.7-46.9,20.2-55.8,42C-1.7,78.6-1.5,94.4.7,112c3.3,26.6,16.7,53.2,32.4,64.3s41.1,13.8,50.5,14.6c2.9,0.2,6.3.4,9.9,0.4,13.4,0,30.9-2.3,44.5-12.4,10.2-7.5,23.3-21.6,27-33.1s-9-33.3-19.3-43c0,0-19.8-17.9-11.6-28.2a3.3,3.3,0,0,1,2.7-1.3c5.7,0,16.2,10.6,26.8,21.2s21.3,21.2,27.1,21.2a3.8,3.8,0,0,0,1.7-.4c10.2-4.9,9.9-12.2,0-31.3s-32-46.8-48.5-57.7S108.2,9.3,86.3,9.3" transform="translate(0.5 -9.3)"/></svg>