<svg id="Layer_1" data-name="Layer 1" xmlns="http://www.w3.org/2000/svg" viewBox="0 0 76.72 69.6"><defs><style>.cls-1{fill:#ffbff2;}</style></defs><title>articon</title><path class="cls-1" d="M142.08,395.22a5.19,5.19,0,1,1,.09,0h-0.09m-8.92-18.63a5.19,5.19,0,1,1,5.19-5.19,5.19,5.19,0,0,1-5.19,5.19m9-15.92a5.19,5.19,0,1,1,5.19-5.19,5.19,5.19,0,0,1-5.19,5.19m16.89-13h0a5.19,5.19,0,0,1,5.19,5.17v0a5.19,5.19,0,1,1-5.19-5.21m-4.16-8.27a58.09,58.09,0,0,0-8.31.63A27,27,0,0,0,125.19,356c-4,9.83-4,15.85-3.11,22.6,1.27,10.19,6.39,20.36,12.4,24.59,5.78,4.07,15.72,5.29,19.31,5.57,1.11,0.09,2.4.15,3.8,0.15,5.14,0,11.81-.88,17-4.76,3.89-2.88,8.9-8.27,10.31-12.67,1.57-4.86-3.44-12.76-7.37-16.44,0,0-7.59-6.85-4.42-10.78a1.26,1.26,0,0,1,1-.48c2.17,0,6.2,4,10.26,8.1s8.13,8.1,10.38,8.1a1.46,1.46,0,0,0,.64-0.14c3.9-1.86,3.79-4.67,0-12-4-7.74-12.24-17.89-18.57-22.08a38.43,38.43,0,0,0-22-6.49" transform="translate(-121.61 -339.36)"/></svg>