<?xml version="1.0" encoding="utf-8"?>
<!-- Generator: Adobe Illustrator 19.2.0, SVG Export Plug-In . SVG Version: 6.00 Build 0)  -->
<svg version="1.1" id="Layer_1" xmlns="http://www.w3.org/2000/svg" xmlns:xlink="http://www.w3.org/1999/xlink" x="0px" y="0px"
	 viewBox="0 0 960 560" style="enable-background:new 0 0 960 560;" xml:space="preserve">
<style type="text/css">
	.st0{fill:#003F32;}
	.st1{fill:#F1EDE2;}
	.st2{fill:#FFE8D2;}
	.st3{fill:#FFBABC;}
	.st4{fill:#5F4C56;}
	.st5{fill:#E9C6B7;}
	.st6{fill:#FF7F83;}
	.st7{fill:#94003A;}
	.st8{fill:none;stroke:#240001;stroke-miterlimit:10;}
	.st9{fill:#FFFFFF;}
	.st10{fill:#FF7256;}
	.st11{fill:#240001;}
	.st12{fill:#E3FEFF;}
	.st13{fill:#0598B4;}
	.st14{fill:#B1DDC6;}
	.st15{fill:#165530;}
	.st16{filter:url(#Adobe_OpacityMaskFilter);}
	.st17{mask:url(#SVGID_1_);}
</style>
<title>background</title>
<rect class="st0" width="960" height="560"/>
<polygon class="st1" points="92.1,428.2 87.4,431.5 81.4,438.4 55.5,470.8 31.9,503.9 27.8,520.9 30.6,535.1 39.1,543.6 54.8,551.6 
	57.3,554 110.5,553.7 81,522.5 61.1,508.9 101,469.1 115.9,453.1 "/>
<polygon class="st1" points="467.3,539.6 473.9,553.9 474.3,554.2 530.9,554.2 512.2,512.7 "/>
<polygon class="st1" points="290.3,325.1 250,335.9 248.1,377.4 265.1,455 298.6,475.7 334.5,436.3 328.9,411.1 346.1,361 
	320.5,307.7 "/>
<polygon class="st1" points="271.3,121.7 242.4,159.6 232,191.9 234.2,201.8 238.1,228.4 234.7,227.8 230.9,236.2 226.8,248 
	226.4,253.4 225.4,262.1 226.5,267.9 231.1,273.3 234.8,275.2 235.3,279.6 234.2,285.3 236.7,289 240.7,297.8 241.9,307 
	244.3,317.5 247.1,324.7 250.3,331 256.1,331.8 273.6,322.1 280.5,306.1 297.3,234.8 283.2,187 273.6,172.6 "/>
<path class="st2" d="M510.4,522.8L510.4,522.8c7.2,7.7,11.8,24.3,11.8,27.2v4.2h36.2l-16.5-41.8l-3.3-4.5L510.4,522.8z"/>
<path class="st3" d="M474.7,553.9c0,0,6.4-6.5,11-8s8.4-8.5,12-8.7s14.3-9.2,14.3-9.2s5.4-6.4,10.2-6.4s11-5.1,11-5.1H544l-2.9-7.6
	h-5.4l-15,9.1l-3.1-0.3l-2.7,1.6l-5.6,3.2l-11.1,7.2l-10.7,6.2l-8.5,5.7l-2.9,3.2l-3.5,3.6l-1.5,0.8l2.1,3.8l-0.4,0.5l0,0.5h1.5
	L474.7,553.9z"/>
<path class="st4" d="M246.2,322.7l-7.1,38.4l9.4,56.9l31.2,51.5l17.6,11.5l32.5-27.9l31.4-35.9l14.9-41l12-16.9l5.2-13.9h8.6
	l7.2,3.9l29.2,11.2l17.9,12.2l11.1,3.5l12,7.7l2.7,0.1l3,2.3l0.8,3.6l0.6,2.7l4.5,6.8l1.8,1.5l4,6.3l8.1,12.5l13.6,22.2l4.8,9.6
	l10,20.1l11.7,20.6l5,8.6l0.8,1.7l-6.6,4l-12,3.6l-33.8,19.7l-18,11.6l-3.4,2.2c-2.8,0.3-5.7,0.8-5.7,0.8l-4.5,3.8l-5,3.7l-3.8,2.3
	l-9.1-0.2h-8.2l-11.8,0.2H175.8l-1-2.1l-6.3-14.5l-2.6-6.1l-1.6-5.4l-0.6-11.4l-0.2-7.5l-1-11.3l-7.5-5.8l-4.2-1l-2.2,3.2L130,480
	l-6.5-3.8l-12.3-12.1L99.1,453l-5.1-5.3l-8.8-13.8l-1.9-3.4l-0.1-2l5.1-5.9l9.9-10.8l17.7-20.1l14.3-17.4l25.8-26l4.5-4.1l12-7.4
	l6.1-3.5l3.4-1.3l15.4-4.5l6.8-2l3.9-0.4h19.8l3.4-0.3l8.6-1.5L246.2,322.7"/>
<path class="st2" d="M250.9,143.7c0,0,6.3,3.8,8.3,9s-0.7,14.8-0.7,14.8l-0.9,11.2v7.1c0,0-1.6,5,0,8.9s3.6,10.9,3.6,10.9l-2.4,11.4
	l-3.3,6.4l16.6,4.4l-2.1,13.1l-3.2-2.7l-4.4-0.1l-4.8-3.4h-1.8l0.2,6.6c0,0-0.1,1.4,2.6,2.3s9,2.4,9,2.4l4.5,1.1c0,0,1,4.1,0,6.6
	s-2.6,6.9-4.5,11.4c-1.5,3.6-1.2,12.3,1.1,16.2c0.8,1.4,0.8,3,1.7,4.4c1.2,1.8,3.2,3.5,3.7,5.6c0.7,3.5,2.5,19,2.5,19l-1.7,9.4
	l-1.2,2.2l-0.8-7.2l-8.3-14.8l-9.8,5.4l-9,1.2l-5.2-0.7c0,0,3.5,3.7,5.2,4.5s6.1,1.1,8,0.8s6.4-1.1,6.4-1.1l0,0
	c1,2.1,1.4,3.1,1.9,10c0.2,2.1,0,4.3-0.6,6.3c-0.9,1.4-2.1,2.5-3.6,3.3c-2.8,1.8-6.8,0-6.8,0l-3.2-1.6l5.3,4.5l8.2,1.6l12.3,0.2
	l16.8-1.9l10.1-2l2.2-38.2l2.1-38.7l-5.3-32.4L272.5,140L250.9,143.7"/>
<path class="st2" d="M294.9,329.8c0,0,8.9,13.8,6.8,21.8c-1.5,5.6-3.7,20.9-4.9,29.4c-0.5,3.8-0.6,7.6-0.1,11.4
	c1,7.9,2.5,22.3,0.5,28c-2.7,8.1-24.5,36.7-24.5,36.7s13.8,13.5,23.2,16.6c4.1,1.3,39.3-29.8,39.3-29.8l25.9-36.5l22-41.3l-17.9-31
	l-15.9-15.6l-32.4-4.4L294.9,329.8z"/>
<path class="st2" d="M94,447.8l-49.7,55.8c0,0,3.3,11.5,11.7,18.1s29.2,15.5,29.2,15.5l8.8,7.1l4.3,5.6l1.8,4h16.8l3.8,0.1l-30.4-28
	l-8.7-20.6l8.7-26.8l8-17.8l2.9-5.8L94,447.8"/>
<path class="st3" d="M98.2,453.9c0,0-5.4,6.4-8.4,10.7s-19.6,23.2-19.6,23.2c-3.2,2.1-6.3,4.5-9.1,7.1c-2.8,2.7-10.6,9.2-10.6,9.2
	l4.8,6.4c1.6,3.2,3.8,6,6.6,8.3c4.4,3.5,16.6,10.9,16.6,10.9s12.3,7,13.6,7.5s10.5,10.6,10.5,10.6l3.1,5.2l17,1.1l-17-15.2L94.2,518
	l17.2-15.8l15.9-19l2.7-3.2l-5.9-3.3l-5.5-5.3l-3.1-3.2l-8.8-8.1l-5.7-5.2l-2-1.9L98.2,453.9z"/>
<path class="st2" d="M61.1,554.2c0,0-13.6-12.7-18.3-15.7c-3.8-2.6-7.5-5.5-10.9-8.7c-2-0.7-3.3-2.7-3-4.8
	c0.5-3.6,2.5-12.5,2.5-12.5l0.4-8.7l-4.2,7.5l-4.8,12.8l-0.3,2.6l-0.2,1.7l0.6,6.3l0.5,4.2l1.1,2.5l4.1,6.4l5,6l0.2,0.4L61.1,554.2
	L61.1,554.2z"/>
<path class="st5" d="M233,271.5c-0.2,0.4-0.2,0.9,0,1.3c0.3,0.5,3.4,1.9,3.4,1.9c0.4,1.1,0.6,2.3,0.8,3.5v9c0.3-0.4,0.4-0.9,0.6-1.4
	c0-0.4,0.1-2.4,0-3.5s0-3.5,0-3.5v-4.6c0.3,0.2,0.7,0.4,1.1,0.6c0.6,0.2,1.1,0.4,1.7,0.5c0.5,0.1,1,0.5,1.1,1
	c0.2,1.2,0.4,2.4,0.4,3.6c0,1.5-0.2,2.9-0.7,4.3c-0.4,0.5-2.3,5-2.3,5l3,0.2l3-11.3l-4.4-7.8l-5.7-1.7L233,271.5"/>
<path class="st5" d="M247.6,207.8c0-0.2-1.3,1-0.9,2.5s2.9,5.6,2.9,5.6l1.4,6.6l0.2,4l4.4-4.8l0.4-7.5l3.2-5.2l-2.4-0.9l-3.9-1.8
	l-3.4-1.2L247.6,207.8z"/>
<path class="st2" d="M232,191.9c0,0,4.7,5.6,5.1,7.4s1.5,8,1.5,8l1.1,3l0.2,4.7l-4.8-4.3l-1.7-7.9l-1.8-3.8l-0.4-4.5L232,191.9"/>
<path class="st2" d="M231.3,267.6c0,0-2.6,0.8-2.2-2.6c0.4-3.2,2.7-10.4,3.1-11.6c0-0.1,0.1-0.2,0.2-0.3l2.2-3.2l4.3-5.8l0.1-0.1
	c0.4-0.7,5.7-9.2,5.7-9.9c0.5-2.1,1.1-4.3,1.9-6.4c0,0,0-0.1,0-0.1c0.1-0.7,1.4-6.9,0.9-9.6c-0.3-1.6-0.9-4.2-1.4-6.2
	c-0.2-0.7,0.2-1.4,0.9-1.6c0.4-0.1,0.8,0,1.1,0.3l0.1,0.1c0.6,1.4,1.1,2.8,1.5,4.2c0.1,0.2,0.2,0.5,0.4,0.6l5,4.3
	c0.4,0.4,0.6,0.9,0.4,1.4l-14.7,40.4c-0.1,0.3-0.3,0.5-0.5,0.7L231.3,267.6"/>
<path class="st3" d="M261,333.9c0,0-7,16-6.6,22.7s-3.6,35.9,0,45.2c3.6,9.3,14,33.6,14.1,40.3s12.9,23.5,16.7,24.4
	s10.8,7.2,10.8,7.2s22.3-15.9,24.5-18.6s24.3-26.8,24.3-26.8l8.1-14l11.1-25l8.8-14.9l5.5-6.8l10.8,8.7l-10.7,27.7l-19.6,28.8
	l-27.2,26.2l-20.1,13.8l-14.2,8.3l-14.9-8.1l-13.5-11.7l-10.1-16.5L244.7,408l-2.5-23.2l1.8-23l0.8-23.4l1.5-7.9l2.5-2.3
	c0,0-0.4,0.4,1.6,2c2,1.3,4,2.4,6.2,3.3L261,333.9"/>
<path class="st3" d="M234.7,227.8c0.3,0.7,0.7,1.4,1.1,1.9c0.6,0.5,1,1.1,1.3,1.7c0.5,0.6,1.3,0.9,2.1,0.7l1.6-1.2l1.7-1l0.4-4.7
	c0.1-1.2-0.3-2.3-1.1-3.2l-0.5-0.6l0.4,6.5l-1.6,0.4l-2,0.1l-1.1-0.1l-1-0.6l-0.2-0.3H235L234.7,227.8"/>
<path class="st6" d="M236.8,224.5c0.1,0.7,0.4,1.4,0.9,2c0.6,0.2,1.3,0.3,2,0.2l1,0.3l0.6,0.2c-0.2-1.3-0.4-2.6-0.8-3.9
	c-0.2-0.6-0.4-1.3-0.5-2l-0.3-1.5l-0.4-1.2c-0.1-0.3-0.4-0.7-0.6-0.9c-0.5-0.1-0.9-0.2-1.4-0.3l-0.6-0.4l-0.9-1.2l2,0.7l2.4,2.1
	l1.1,2.6l0.4,2.8v3.7l-2.4,0.5l-3.1-0.8l-0.2-1.6L236.8,224.5z"/>
<path class="st3" d="M237.1,217.1c0.5,0.4,0.9,1,1,1.6c0,0.8,0.2,5,0.2,5c0,0.5-0.1,1-0.4,1.5c-0.4,0.4-1,1.3-1,1.3l-1.1-0.5
	l0.1-9.2L237.1,217.1z"/>
<path class="st3" d="M235.6,215.1l2.7,1.8l2.2,2.6l1.1,3.9l0.9-0.9l-1.6-4.8l-1-2.1c-0.1-0.2-0.2-0.3-0.3-0.5
	c-0.4-0.6-1.6-2.2-2-2.6s-2.3-2-2.7-1.8s0,4.1,0,4.1L235.6,215.1z"/>
<path class="st3" d="M260.6,209.2c0,0-2.1,9.7-0.3,10.3s6.7,3,6.7,3l6.7,4.8v4.1l-8.4-1.6l-4.2-2.2l-2.3-0.1l-1.8,1.1l1,0.4l0.8,0.9
	l-0.1,5l-1.6,6.6l-2.8-5.2L260.6,209.2z"/>
<path class="st7" d="M469.7,545.9l8.1-5.9l17.7-11.6l6.4-2.5l17-12.4l5.4-0.2l2-1.5l8.8-5.5h5.5l2.6,7.4c-2.3-1.1-4.7-2-7.2-2.8
	c-2.8-0.9-3.6-0.6-5,1.6s-8.7,5.5-10.2,5.4s-3.6,2.4-4.3,2.9s-7.7,3.5-10.4,6.1c-2.9,3-6.3,5.4-10,7.3c-4.3,2-6.3,4.8-12.8,8.7
	c-4.1,2.5-7.5,6-9.8,10.1l-2.9-6.7"/>
<path class="st8" d="M472.6,554.2"/>
<polygon class="st9" points="261,229.4 259.5,234.3 260.2,236.7 265,238.3 269.7,237.6 271.3,234.8 270.5,232.3 261,227.6 "/>
<line class="st8" x1="473.3" y1="553.9" x2="469.7" y2="545.9"/>
<path class="st7" d="M52.1,503.6l12.1,1c0.2,0,0.4,0,0.6,0.1l12.5,3.2c0.3,0.1,0.6,0.2,0.9,0.3l13.2,7.4c0.8,0.4,1.7,0.6,2.5,0.3
	l4.2-1c0.8-0.2,1.4-0.6,1.9-1.2l4.9-6.1c0.1-0.1,0.2-0.3,0.3-0.4l12.3-11.3l0.2-0.2l6.8-7.2c0.2-0.3,0.5-0.6,0.6-0.9l2.2-4.6
	c0.4-0.7,0.4-1.6,0.2-2.4l-0.2-0.9c-0.2-0.9-0.8-1.6-1.5-2.1l0,0c-1-0.7-2.3-0.7-3.4-0.2l-2.4,1.2c-0.1,0.1-0.3,0.1-0.5,0.2
	c-0.5,0.1-1.9,0.7-4.4,3.1c-3,2.9-5.6,5-8.3,7.8c-0.2,0.2-0.4,0.5-0.6,0.8c-1.7,3.2-4.1,6.1-7,8.4c-4.9,3.8-9.3,3.8-9.3,3.8l-4,0.4
	c-0.6,0.1-1.1,0-1.7-0.2l-2.1-0.8c-0.2-0.1-0.4-0.1-0.6-0.2l-7.9-1.4c-0.3,0-0.5-0.1-0.8,0l-10.4,0.6c-0.2,0-0.4,0-0.6,0.1l-4.2,1
	L52.1,503.6L52.1,503.6L52.1,503.6z"/>
<path d="M262.2,231.4c0.1,0.8,0,1.5-0.3,2.3c-0.2,0.4-0.4,0.8-0.7,1.1l-1.4,1.5v-9L262.2,231.4"/>
<path class="st10" d="M238.4,292"/>
<polyline class="st10" points="264.3,296.7 258.4,295.9 251,294 246.2,291.1 241.6,289.7 237.8,289.5 234.8,287.1 237.1,290.6 
	238.4,292 237.2,295.2 237.5,300.4 239,303.2 244.1,305.3 251.1,303.7 258.8,300.6 264.3,297.8 266,297.1 264.3,296.7 "/>
<polyline class="st9" points="235.7,215.9 239.2,217.1 241.2,221.4 241.2,227.3 237.6,227.3 235.9,224.9 235.7,215.9 "/>
<polyline class="st11" points="235.4,218.2 237.6,218.7 235,215.1 234.2,216.5 235.4,218.2 "/>
<path class="st8" d="M235,211.9c0,0,0.2-0.2,1,0.9s1.9,2.3,1.9,2.3l1.3,1.5"/>
<path d="M235.4,218.3l0.5,7h0.8c0.8-0.5,1.3-1.5,1.2-2.5l-0.1-3.5c0-0.3-0.2-0.7-0.4-0.9l-3.1-3.2v2.7L235.4,218.3"/>
<path class="st3" d="M300.3,330.7c2.7,5.9,11.3,16.1,9.3,25.4s-6.6,30.4-6.6,30.4l-2.7,17.3c3-3.1,5.5-6.7,7.4-10.7
	c2.5-5.8,11.4-16.9,11.4-16.9s1.3-3.2,3.4-10.8s6.5-18.3,9-16.1s-4.3,27-4.3,27l-3.4,16.9c0,0-5.2,10.3-3,15.4s20.8-8.3,22.5-15.4
	s12-31.1,12-31.1l4.5-15.2c0,0,5.6-4.4,4.9,2.5s-4.9,23.3-4.9,23.3l-4.5,7.2c0,0,13.3-10.5,20.9-3.5s9.6,13.5,9.6,13.5l11.6-23.2
	l4.5-10l-6.3-7.3l-8.9-2l-9.7-10l-4.3-12l1.7-18.4l-1.7-13.4l-13-14.1l-59.4,51.5"/>
<path class="st5" d="M258.8,210.6l-2.4,1.5c-0.2,0.2-0.4,0.4-0.5,0.7l-1.2,4.5c-0.2,0.6-0.8,1-1.4,0.8c-0.4-0.1-0.8-0.5-0.8-0.9
	c-0.5-2.3-1.2-4.7-2.2-5.3c-0.6-0.4-1.1-0.7-1.7-1c-0.8-0.5,1.6,10.9,1.7,11.6c0,0,0,0,0,0.1c-0.6,1.5-1,3-1.4,4.6l0,0l-1.2,11.3
	c0,0.1-0.1,0.3-0.1,0.4c-0.8,1.6-6.7,12.4-7.6,13.2c-0.3,0.2-0.6,0.4-0.9,0.6c-1.7,0.9-3,2.3-3.7,4c-0.3,0.6-0.3,1.4,0,2l1.7,3.3
	c0.4,0.8,1.3,1.1,2.1,0.7c1.9-0.9,4.5-3.2,5.9-3l4.3,0.2c-1.6,5.8,2.5-6.2,2.7-6.7l4.7-15.8v-0.1l3.6-16.2c0-0.1,0-0.1,0-0.2
	l0.5-8.1c0-0.1,0-0.2,0-0.3l-0.2-1.2c-0.1-0.6-0.8-1-1.4-0.9C259,210.4,258.9,210.5,258.8,210.6z"/>
<path class="st5" d="M258.5,143.6c0,0,3-2,8.4,0s7.9,4.4,7.7,9.5s1.9,12.2,0.5,19.4c-0.9,4.8-2.1,8.4-2.9,11.8
	c-0.4,1.8-2,3.1-1.5,4.9l0,0l0,0.1l1.1,2.5c0.1,0.1,0.1,0.3,0.1,0.4l0.5,6.7c0,0.3,0.1,0.5,0.3,0.7l2.9,3.6c0.1,0.2,0.2,0.4,0.3,0.6
	l0.6,3.8c0,0,0,0.1,0,0.1c0,0.7,0.5,7.5,2.8,10.5c0.9,1.1,1.6,2.2,2.1,3.5c0.2,0.5,0,1.1-0.4,1.4l0,0c-0.6,0.5-0.6,1.4-0.1,1.9
	c0.1,0.1,0.2,0.1,0.2,0.2l6.7,4.5c0.5,0.4,0.7,1.1,0.5,1.7l-2,4.5c-0.3,0.7-1.1,1-1.8,0.7c-0.2-0.1-0.3-0.2-0.5-0.3l-1.8-2
	c-0.3-0.3-0.6-0.5-1-0.5l-9.5-3.4c0,0,4.7,2.4,4.7,5.8c0,1.7-10.8,0-9,1.7s4.3,3.2,2,6.6l8-1.1l0.2,0.1c5.3,2.2,9.7,6.1,12.7,11
	c5.1,8.9,8.3,17.8,11.4,22.2s-3.5,26.3-3.5,26.3c-0.2,3.6-5.7,9.6-6.9,10.9c-0.1,0.2-0.3,0.3-0.3,0.5c-0.5,1.7-3,9.7-8.1,12.5
	c-5.7,3.2-13.3,7.6-13.3,7.6l28.4-3.7l2-0.4l8.1-4.4h0.1l9.6-2.7h0.1l14.4-5.2l0.1-0.1l13.1-6.5l0.1-0.1l4.6-3l0.1,0l2-1.5
	c0.2-0.1,0.3-0.3,0.4-0.5l14.7-31.7c0-0.1,0.1-0.2,0.1-0.3l9.2-46.3c0.1-0.3,0-0.7-0.2-1l-4-6.4c-0.1-0.1-0.1-0.2-0.2-0.4
	l-16.5-62.4c-0.1-0.4-0.3-0.7-0.7-0.9l-29.9-15.7c-0.1,0-0.2-0.1-0.2-0.1l-15.1-12.2c-0.1-0.1-0.3-0.2-0.5-0.2l-21.6-6.3
	c-0.2-0.1-0.5-0.1-0.7,0l-14.5,3.4c-0.2,0.1-0.4,0.2-0.6,0.3l-8.2,7.8c-0.1,0.1-0.2,0.2-0.2,0.3L258.5,143.6"/>
<path class="st7" d="M250,331.6c-1.6,5.3-2.5,10.7-2.8,16.2c-0.2,8-1,19.8-1,19.8s-2.9,18-1.5,24.3s2.5,12,2.5,12l8,21.3l5.1,10.1
	c0,0,6.5,21.9,10.9,25.8s19.2,15,19.2,15l7,2.2l15-7.7c0,0,8.9-5.5,13-10.1s15.2-10.1,18.6-15.2s15-17,15-17l13.9-18.6l4.3-15
	l7.4-17.1l3.7-18.2l5-6.4l8.8,3.6l-17.5,40.6l-7.4,14.8l-7.9,10.7l-10.3,10.1l-5.3,9l-9.1,9.7l-23.7,19.9l-15.5,8.2l-9.7,5.2
	l-7.3-3.4l-20-17.9l-12.9-16l-13.7-43.4l-2.5-16.1v-47.4l0.5-10.6l5.1-4l1.5-0.7h1.1l3,5L250,331.6z"/>
<path class="st7" d="M260.1,240.1c0.3,1.4,1,2.7,2.1,3.6c1.7,1.2,6.7,0.9,8.6,0c1.2-0.6,2.2-1.6,2.8-2.8l-2.8-1.4l-1.7-1.2l4.8,0.2
	l10.4,1.6l3.2,1.3l-6.9,0.9l-3.1,0.3c-1,1-2.3,1.6-3.7,2c-2.5,0.5-5.1,0.7-7.6,0.8c0,0-3.2-0.1-3.9-0.6S260.1,240.1,260.1,240.1z"/>
<polygon class="st5" points="269.7,232.2 270.3,235.1 268.5,237.9 275.8,238.8 278.7,236.7 276.9,235.1 "/>
<path class="st7" d="M264.9,224.9c0,0,3,2,1.9,2.7s-2.6,1.6-2.6,1.6l13.3,5.8l8.8,5.9l1.2,0.5c0,0-0.7-2.9-2.5-3.8
	S264.9,224.9,264.9,224.9"/>
<path class="st7" d="M348.2,311.3c0.9,4.8,4.4,3.5,7.3,1.4c0.6-0.4,1.4-0.3,1.8,0.3c0.3,0.4,0.3,0.8,0.1,1.3l-0.1,0.4l-3,6.2
	l-2.1,4.3v0.1l-8.8,23.7c-0.5,1.2,0.1,2.6,1.3,3.1c0.9,0.4,2,0.1,2.7-0.7l5.9-6.7c1.2-1.4,2.1-2.9,2.7-4.6c2-5.8,6.8-19.5,9.2-20.6
	c0.8-0.4,1.6-0.9,2.2-1.5c0.5-0.4,1.3-0.4,1.8,0.2c0.2,0.3,0.3,0.7,0.3,1l-0.6,2.6c0,0.1,0,0.3,0,0.4l2.5,19.1c0.1,0.5,0.5,1,1,1.1
	c1.4,0.3,3.9,1.2,3.6,3.1c-0.5,2.5-4.3,14-4.6,14.9v0.1c-0.3,0.6-3.2,7.1-5.2,7.3s10.8-2.2,12.1-7.2c1.1-4,6.1-3.8,8-3.5
	c0.4,0.1,0.8,0.3,1,0.8l0.5,1.2c0.3,0.6,1,0.9,1.6,0.7c0.6-0.1,1.3,0.1,1.8,0.6c1.8,1.3,3.4,2.9,4.8,4.7c0.4,0.5,1.2,0.6,1.8,0.2
	c0.2-0.1,0.3-0.3,0.4-0.5l3.5-7.8c0.1-0.2,0.1-0.3,0.1-0.5v-1.5c0-0.1,0-0.1,0-0.2l-0.6-3.7c-0.1-0.3-0.2-0.5-0.4-0.7l-5-4.4
	c-0.2-0.2-0.5-0.3-0.8-0.3h-3.8c-0.3,0-0.6-0.1-0.8-0.3l-7.5-6.6c-0.1-0.1-0.2-0.2-0.3-0.4l-3.1-5.7c-0.1-0.1-0.1-0.2-0.1-0.3
	l-1.5-6.8c0-0.1,0-0.1,0-0.2l-0.4-10.2c0-0.1,0-0.1,0-0.2c-0.1-0.6-0.8-4.3-0.5-5.2s3-11.5,3-11.5l2.4-7.3c0.1-0.3,0.1-0.5,0-0.8
	l-3.6-11.7c-0.1-0.4,0-0.9,0.3-1.2l9.1-10.1c0.2-0.2,0.3-0.4,0.3-0.7l1.9-14.8c0-0.2,0-0.4-0.1-0.6l-3.3-8.6
	c-0.1-0.4-0.5-0.7-0.8-0.8l-11.2-3.1c-0.1,0-0.2,0-0.4,0h-6.3c-0.3,0-0.5,0.1-0.8,0.2l-4.1,3.1c-0.2,0.1-0.4,0.2-0.6,0.2l-3.6,0.4
	c-0.2,0-0.3,0.1-0.5,0.1l-5.4,2.9c-0.1,0.1-0.2,0.1-0.3,0.2l-1,0.9l0,0c-0.5,0.5-1.3,0.4-1.8-0.1c-0.3-0.3-0.4-0.7-0.3-1.1l0.7-3.1
	c0.2-0.7-0.3-1.4-1-1.5c-0.5-0.1-1,0.1-1.3,0.4l-3.3,4c-0.3,0.3-0.4,0.8-0.2,1.2l4.1,12.9c0.1,0.2,0.1,0.3,0.2,0.4
	c0.6,0.7,2.3,3.4-0.2,9.7c-1.7,4.3-3.1,8.7-4.2,13.2l-6.9,30.1c-0.2,0.6-0.6,1.1-1.1,1.4c-4,1.6-24.4,9.9-34.8,14.8
	c-0.6,0.3-0.9,1.1-0.6,1.7c0.2,0.5,0.7,0.8,1.2,0.7l23.7-1c4.5-0.2,8.7-2.6,11.1-6.4l8.2-12.9c0.4-0.6,1.2-0.7,1.8-0.3
	C348,310.7,348.2,311,348.2,311.3z"/>
<path class="st3" d="M354.8,255.7c-0.2,1.5-1.4,12.1-1.4,12.1l-2.9,7.3l-1.2,5.8l0.3,3.5l4.8,2.5l5.1,4.1l5.1-1.6l8.1-10.2l7.7-8.5
	c0,0,5.4-6.4,5.9-7.9s0.3-8.1,0.3-8.1l-7.4-10.3l-7.2-1.6c0,0-3.4-1-5.1,0s-8.4,5.9-8.4,5.9s-2.5,2.7-3.8,3.3
	S354.8,255.7,354.8,255.7z"/>
<path class="st5" d="M243.8,257.7c-0.1,0-0.5-0.1-4.1,1l-1.9,1.9c-0.3,1-1.3,2-0.3,2.3c1.2,0.4,2.3,1.1,3.1,2.1
	c3.5,3.1,7.4,1.1,7.5,4.9c0,1.4-1,3.6-0.3,5.6c0.2,0.6,0,0.4,0.7,0.4l0.6,0.6c1.2-0.1,2.4-0.4,3.5-0.7c1.9-1.9,2.7-4.5,2.4-7.2
	c-0.7-4.3-1-4.8-4.7-9.5l-1.9-0.9c-0.5-0.2-1.1-0.4-1.7-0.5C246.8,257.7,245,257.7,243.8,257.7z"/>
<polygon class="st12" points="355,294.9 359.4,288.8 360.7,289.7 361.4,293.4 361.4,299.3 360.6,302.3 358.4,305.4 353.9,306.7 
	351.8,306.6 349,305.4 "/>
<path class="st7" d="M242.4,159.6l7.1-9.2c0,0-0.8-2.9,4.1-4.2s12.5-4.4,12.5-4.4l2.4-1.9c0,0-2.4-2.5,0-2.1s10.8,9.6,10.8,9.6
	l6.9,8.4c0,0,6.5,6.5,6.5,10c0.1,3.3,0.5,6.6,1,9.8l0.6,5.5l-0.2-7.1c0.1-1.2,0.5-2.5,1-3.6c0,0-1.2,15.5,2.1,20.1s9.2,13,9.2,13
	l2.7,3.8l6.1,6.7l4.4,5.4l3.8,6.1v2.9l4,23.6v8.7l-0.8,11.1l0.8,4.4l2.9,6.1c0,0-2.1-2.5-1.5-11.1s1.5-17.4,1.5-17.4s-1,13.3,0,15.3
	s5-37.1,5-37.1l-7.9-36.4l-32.6-56.8L282.2,127l-15.5,1.7l-8.1,1.9l-6.3,6.4l-2.8,3l-2.9,0.6L242.4,159.6L242.4,159.6"/>
<path class="st2" d="M371.7,256.2c0,0,3.4-0.1,4.4,0.7c0.8,0.9,1.5,1.9,2.1,3v6.6l-2.1,2.1l-3,1.8l-2.2,1l0.9-1.8c0,0,0.7,0.2,2.8-2
	s2-3.9,2-3.9l-0.5-3.1l-0.6-1.9l-1-1l-1.4-0.1l-1.6-1c0,0-1.5-0.7-0.7-0.7"/>
<path class="st2" d="M361.4,277.1c0,0,4.1,2.4,5.5,1.6s4.9-2.4,4.9-2.4l2.6-2.1l2.1-1.6l1.9-0.3c0,0,0.5-0.3-0.2,1s-2.4,4.9-2.4,4.9
	l-2.9,2.6l-2.2,1.5l-1.8,3.5l-1.7,2c0,0-2.2,3.4-4,2.6s-4.2-4.5-4.2-4.5l-4.4-2.1l-2.3-3.1v-3.8l1.2-0.5c0.8-0.3,1.6-0.4,2.4-0.2
	l2.6,0.5L361.4,277.1z"/>
<path class="st2" d="M379,243.5c-0.9,0-1.6,0.6-1.6,1.5c0,0.5,0.2,1,0.6,1.3c1.5,1.1,3,2.4,3.3,3.5c0.6,1.9,2.8,4.8,3.7,5.9
	c0.2,0.3,0.3,0.6,0.3,1v1.5c0,0.2,0,0.4-0.1,0.6l-3,7.3l3.7-4.6c0.3-0.2,0.6-0.4,0.8-0.7l0.6-6c0.1-0.3-0.3-0.2,0.1-0.3l-0.7-3.3
	c-0.2-1-0.7-1.8-1.5-2.4c-0.1-0.1-0.2-0.1-0.2-0.2l-3.9-4.4L379,243.5L379,243.5L379,243.5z"/>
<polygon class="st7" points="339,252 349,255.3 353.4,246.6 336.8,240.9 336.8,250.8 "/>
<path class="st7" d="M331.5,272.5l3.8,9.8c0,0-1.3-16.1,4.9-23.8l6.3-6.4l-10.5-3.3l-5.2-0.7c0,0,3.4,0.6,0.7,11.8
	c-2.6,11.3-1.3,18.2-1.3,18.2S329.6,273.6,331.5,272.5z"/>
<path class="st13" d="M350.1,286.6l2.6-0.8c0.5-0.6,1.3-0.7,1.9-0.4c1.3,0.4,4.2,2,4.6,2.9c0.2,0.3,0.3,0.7,0.4,1c0.3,1-2,7.9-2,7.9
	l-3.5,4.8c0,0-1.8,2.6-2.9,3.1c-0.7,0.3-1.5,0.4-2.3,0.4l-1.7-1.2l-2.1-5.4l-0.3-5.1c0.3-1.4,0.7-2.7,1.2-4.1
	c0.5-0.9,1.1-1.8,1.8-2.7L350.1,286.6z"/>
<path class="st14" d="M349.3,304.1"/>
<polyline class="st15" points="349.2,282.3 348.1,296.5 351.2,296.5 352.2,282.3 349.2,282.3 "/>
<path class="st8" d="M352,285.8c1.2-0.7,2.8-0.7,4,0c1.8,1.1,3.4,2.4,4.7,4c0.3,0.3,0.5,0.7,0.6,1.1l0.6,2.5c2.8-0.5,5.3-2,6.9-4.4
	c2.4-3.7,7.2-9.9,7.2-9.9l2.3-1"/>
<path class="st8" d="M361.9,293.4v3.8c-0.1,2.9-1.2,5.6-3.1,7.8c-1.2,1.2-5.5,1.8-7,1.7c-0.4,0-0.8-0.1-1.2-0.4
	c-1.2-0.6-2.3-1.3-3.3-2.1c-1-1.7-1.7-3.5-2.1-5.4c-0.2-1.7-0.3-3.4-0.3-5.1c0.2-0.9,1-3.4,1.2-4.1c0.5-1,1.1-1.9,1.8-2.7l1-0.6
	l-0.8,10.2h3.1l0.8-10.8l0.2-3.5h-3.1l-0.3,4.1"/>
<path class="st8" d="M345.8,311.3l-6.7,4.5c0,0-13,6.1-14.5,6.9s-19.7,7.1-19.7,7.1l-14.5,2.9l-7.9,0.9l-10.2,1.2
	c0,0-13.3,0-18.2-2.1c-2.8-1.1-5-3.4-6.2-6.2l-1.6-3.8"/>
<path class="st8" d="M277.5,340.4c0,0,3.8-2.5,4-3.6l-1.3-3"/>
<path class="st8" d="M238.6,210.3l1.3,4.7c0,0,2.6,5.9,3.1,9.8s-1.3,10.2-1.3,10.2s-6.2,11.5-7.1,12.6l-8.4,10.6"/>
<path class="st8" d="M85.1,434c0,0,8.3,14,10.9,16.3s20.5,18.8,20.5,18.8s7,8.2,10.5,9.5c3.5,1.4,11.7,7,11.7,7l9.9,6.6"/>
<path class="st8" d="M132,482"/>
<polyline class="st8" points="175.5,554.2 171.2,544.4 165.9,532.1 164,526 162.8,495.9 "/>
<path class="st8" d="M460,553.1c0,0,31.6-23.6,35.5-24.6s14-7.5,16.7-9.5c2.7-2,5.2-5.9,7.5-5.5c1.5,0.2,3.1,0.2,4.6,0
	c3.4-2.6,7-4.9,10.8-7h6.2"/>
<path class="st7" d="M235.1,271.1l0.8-1.5c0.7-0.2,1.4-0.2,2.1,0c0.8,0.5,1.5,1.1,2,1.9l0.4,1.3l0.8,1.1v0.5l-4.1-0.5l-2.6-1.4
	L235.1,271.1z"/>
<path class="st11" d="M234.5,272.5l-1.4-1.1l1.3-1.1c0,0,3.2-0.3,3.7,1.1c0.3,0.9,0.9,1.6,1.7,2c-0.9,0.1-1.8,0.1-2.6,0
	C236.7,273.3,234.5,272.5,234.5,272.5z"/>
<path class="st11" d="M239.8,263.1c0,0-0.4-3,0.6-3.5c1-0.3,2.1-0.4,3.2-0.4c1.1,0.3,2.1,0.8,3,1.5c0.6,0.6,1.3,1.3,2,1.8l1.2,1
	l1.1,0.9c0.3,0.4,0.6,0.9,0.9,1.3c0.7,1.2,0.9,4.2,0.9,4.2v2.6c0,0.5-0.2,1-0.5,1.4c-0.4,0.4-0.9,1.5-1.5,1.7l-1.5,0.9l1.8-1.6
	l0.5-1.3c0,0,0.5-2.3-0.2-3.2c0,0-0.2-3.1-1.4-4s-3.6-2.9-3.6-2.9l-1.5-1.2l-1.2-1.3c-0.1-0.5-0.6-0.8-1.1-0.6c-0.1,0-0.1,0-0.2,0.1
	c-0.6,0.4-1.2,0.9-1.7,1.5L239.8,263.1z"/>
<path class="st8" d="M258.5,234.8l0.7,0.2l1.1,1.7l3,1.5l4.4,0.1c0,0,5,0.1,6.2,0.2c1.4,0.3,2.9,0.6,4.2,1.1l6.1,0.6l-6.8-5
	l-4.7-1.8l-4.6-1.9l-3-1.6l-1.1-0.6c0,0-1.9-1-2.2-1.2c-0.3-0.2-0.6-0.3-1-0.4l-0.9-0.3l-1.4,0.2c-0.2,0-0.3,0.1-0.5,0.2
	c-0.1,0.2-0.1,0.5-0.1,0.7c-0.4,0.1-0.8,0.1-1.3,0.1c0.4-0.1,0.8,0.1,1,0.4c0,0-1.5,1.2-0.8,0.9c0.5-0.2,1-0.2,1.5,0v4L258.5,234.8z
	"/>
<path class="st11" d="M277.5,235.1c0.4,0.6,0.4,1.3,0,1.9c-0.7,0.8-1.5,1.4-2.5,1.7l3.2,0.9l6.1,0.6L277.5,235.1z"/>
<path class="st11" d="M260.1,227.3l0.1,9.4l-1.8-1.9l0.1-5h-1.5c0,0,2.3-1.5,1-1.4s0.1-0.7,0.1-0.7L260.1,227.3z"/>
<path class="st8" d="M258.7,226.6c0,0,1-2.6,2.1-2.8s1.3-0.7,2.7,0s4.6,2.8,4.6,2.8l3.8,2.4l5.5,3.6l3.5,2.4l2.4,1.6"/>
<polygon class="st11" points="261.3,234.8 260.2,232 260.2,234 "/>
<path class="st11" d="M261.8,231.3l-1.6-1.3l-0.1-2.7l1.9,0.7l-0.6,0.6c0.3,0.4,0.5,0.8,0.6,1.2c0.1,0.6,0.3,1.6,0.3,1.6
	L261.8,231.3z"/>
<path class="st8" d="M33.9,554.2c-2.8-1.8-10.5-14.3-10.5-14.3s-1.2-9.3-1.2-13.3s7.1-18.6,7.1-18.6l11.4-17.9l24.4-31.8l10.5-13
	l9.6-11.4c-1.6-1.6-2.3-3.9-1.8-6.2l9.3-9.6l28-31.9c10.8-16.3,41.5-43.4,41.5-43.4l17.7-10.2l25.8-7.5h24.4l8.3-1.6l6.6-0.8h1.4
	l-2.8-8.3l-0.7-5.3l-1.3-3.1l-3.6-4.2L237,298l0.3-3.8l1.1-2.1l-2.3-2.5c-0.6-0.7-1-1.5-1.2-2.4c-0.3-1.4-0.3-0.1-0.3-1.4
	c0.1-1.2,0.2-2.4,0.5-3.5c0.2-0.9,0.3-1.7,0.3-2.6c-0.2-1.7-0.4-3.4-0.8-5l-2.7-0.9c-1-0.6-1.9-1.3-2.6-2.2
	c-1.1-1.4-2.3-2.4-2.6-3.6s-1-4.7-1-4.7c-0.1-1.2,0-2.4,0.2-3.6l0.3-1.5l0.1-5.1c0.1-1.7,0.3-3.3,0.7-4.9c0.8-2.9,1.7-5.8,2.7-8.7
	c0.8-1.7,3.1-7.8,3.1-7.8l2.1-3.9l0.8-1l-2.6,0.9l3-2.2c-1,0-2.1,0.2-3,0.6c-0.9,0.6,3.2-2.3,3.2-2.3l0.2-2.3l-0.5-2.3
	c-0.3-0.3-0.4-0.6-0.5-1c-0.1-0.8-3.9-0.5-3.9-0.5l2.7-1.2l-3.5-1.4h4.3l-0.3-5.2c0.1-1,0-1.9-0.2-2.9c-0.5-1.8-1.8-5.5-1.8-5.5
	l-1.1-2.2l-0.5-1.9c0,0-0.3-0.1-0.2-1.4s0.1-2.1,0.5-2.4s0.8-2.9,0.8-2.9l2.6-10.3c0,0,3-10.2,4-12.5s3.7-8.5,3.7-8.5
	s2.2-8,2.9-10.6c0.4-1.9,0.7-3.8,0.9-5.7l0.4-2.7c0.4-0.4,0.7-0.8,1.2-1.2c0.8-0.7,0.6-2.8,1.6-4.2s0.8-2.6,1.7-3.2s4-3.3,4-3.3
	l2.3-1.2c0,0,2.9-8.8,3.2-8.6s6.3-2.5,6.3-2.5l7.1-6.3c0,0,13.9-3.2,9.5-1.5c-3.3,1.4-6.5,3.1-9.5,5l23.2-9.9l9.4-2.1l11.4-0.8h8.6
	c6-2,12.4-2.5,18.7-1.5c10.9,1.5,18.1,1.7,24.4,4.4s11.2,4.6,14.5,7.2s12.6,5.7,18.9,12.8c4.1,4.5,8.7,8.5,13.7,12l3.4-0.6v-1.8
	c0,1.7,4.4-0.2,4.4-0.2l2.7,2.1c0,0,4.8,0.4,9.5,0.6s6.3-0.4,10.7,1.3s12.2,5.3,18.3,12s4.2,2.9,10.3,10.9c3.6,4.7,6,10.2,6.9,16
	c0,0,2.7,8.6,3.2,9.9s-1.7-3.8-2.9-4.8s5,16,4.4,18.9l-4.4-10.5c0,0,4.3,21.9,4.4,22.5s-4.2-11.6-4.2-11.6l3.5,20.5
	c0,0-1.3-11.1-4-13c0,0,3.6,14.1,3.8,22.7s-2,36.2-2,36.2s-1.1,14.5-2.9,18.9c0,0,1.9-15.5-1.9-24.2c0,0,1.9,20.4-0.4,30.7
	c0,0,1.3-22.1-2.7-27.5c0,0,7.6,24.6-1.3,43.5c0,0-1.9,14.9-7.1,22.3c0,0-6.3,16.4-9.9,22.1s-10.3,14.5-10.3,14.5l7.6,5.3l6.7,1.5
	l4.4,2l6.7,3.5l5.3,4.2l2.7,0.2l3,2.3l0.8,3.6l0.6,2.7c3,3.5,5.7,7.2,8.2,11.1c3,5,7.2,11.6,7.2,11.6c3.5,4.9,6.7,10,9.5,15.3
	c3.6,7.1,9.9,14.7,10.7,17.7s8.6,18.5,8.6,18.5l10.5,19.3l8,13l1.6,3.4c0,0-6.2,5.4-10.5,4.5l18.3,44.9"/>
<path class="st8" d="M381.1,294.6c0,0-5.4,14.9-3.9,20.2c0,0-0.5,9.5,1.8,16.9s11.5,13.6,11.5,13.6h8.6c0,0-0.9-0.6,2.7,0
	s7.2,3.9,7.2,3.9"/>
<defs>
	<filter id="Adobe_OpacityMaskFilter" filterUnits="userSpaceOnUse" x="244.7" y="98.8" width="243.3" height="329.3">
		<feFlood  style="flood-color:white;flood-opacity:1" result="back"/>
		<feBlend  in="SourceGraphic" in2="back" mode="normal"/>
	</filter>
</defs>
<mask maskUnits="userSpaceOnUse" x="244.7" y="98.8" width="243.3" height="329.3" id="SVGID_1_">
	<g class="st16">
		<path d="M427.8,163.8l-3.7,11.1l3.9,21.5l10.5,28.3l1.8-36.7c0,0-1.2-15.3-2.6-17.6s-7.2-7.7-7.2-7.7L427.8,163.8z"/>
	</g>
</mask>
<g class="st17">
	<path class="st11" d="M244.7,151.6c3-2,5.5-4.7,7.2-7.9l8.4-2.3l4.2-3.5c0,0-1.5-6.1,6.5-1.9s19.1,20.4,19.1,20.4
		s8.9,11.1,11.2,17.3s8.5,15.4,10,18.8s-1.1,9.6,2.3,15.8s11.1,14.2,14.2,18.1s1.9,9.6,3.5,14.6s20,9.6,20,9.6s5.8-2.7,6.9-3.5
		s2.7-3.5,7.3-4.6s13.1,0.4,13.1,0.4c2.2,0.8,4.2,2.1,5.8,3.8c2.3,2.7,3.8,4.6,3.8,7.3s-0.8,8.8-2.3,10.4s-7.8,10.8-7.8,10.8
		l-3.4,6.3l-10.3,23.9l-8,13.8l7.3-8.4c0,0-5.4,6.7-7.1,11.9s-3.4,13.6-3.4,13.6s3.8-13.4,6.5-16.8s12.4-15.9,12.4-15.9l6.3-11.1
		c0,0-4,7.5-4.2,14.2s0,10.9,0,10.9s2.1-19.7,6.7-23s3.4,0,3.4,0s-4.2,2.5-4,5.9s-2.1,9.6-2.1,9.6s4.6-7.1,4.4-9.8s1.3-2.7,1.3-2.7
		s3.3-0.4,4.3,4s3.7,8.2,2.9,12.6s-0.6,7.9-2.9,11.1c-1.8,2.4-3.8,4.6-5.9,6.7c0,0,7-5.6,9-10s3.2-6.9,2.1-11.7s-2.9-11.5-4.4-12.6
		s7.8-1.7,10-4.8s9.6-4,13-8.4c0,0,9-5.2,10.5-7.5s4.8-6.9,4.8-6.9l3.6-5.2l1.3-2.3l3.1-5.4c0,0-3.6,19-6.7,22.6
		c0,0-2.9,9.2-7.8,10.9c0,0,6.1-1.9,6.9-4.2s-6.5,17.6-9.2,18.6l5-4c-3.4,3.8-6.4,7.8-9,12.1c-3.4,5.9-9.2,17.4-9.6,28.1l-4.2,11.9
		c0,0-1.3,5.6-4.6,8l9.2-15.1c0,0,2.7-8.6,4.4-14.5s10.5-15.5,10.5-15.5s-6.3,16.1-7.3,18.6s-4.6,17.6-4.6,17.6s-5.6,9.4-6.5,14
		s-2.5,13.6-2.5,13.6l3.6-9.8c0,0-4.4,13.8-5.4,19.5s-0.2,14.2-0.2,14.2l-1.3,13c0,0,0.6,5.9-0.8,8.8s7.5-13.8,5.9-22.4
		c0,0,1,12.1-1,17.4c-1.1,2.9-2.8,5.6-5,7.8c2-2,3.9-4.1,5.6-6.4c3.8-4.8,8-11.4,7.6-16.5c0,0,2.1,9.4-1.9,13c0,0-8.4,8.4-7.5,8
		s18.2-16.1,20.1-19s10.9-13.2,10.9-13.2l10-12.4l3.8-5.5l5.1-8.9l10.3-14.5l9.9-22.1c0,0,7.2-13.2,7.1-22.3c0,0,3.8-9.7,4-16
		s2.2-8.4-2.7-27.5c0,0,4.5,6.2,3.8,13s-0.7-16.2-0.7-16.2s4.2,17.7,1.9,24.2s3.4-22.4,4-36.5s-0.6-38.1-3.1-41.3
		c0,0,4.1,6.9,3.7,11.3s-0.8-15.2-3.1-18.7s3.9,6.7,3.9,10.1s-2.6-19-4.1-21s4.4,10.5,4.4,10.5s-3.7-18.2-4.4-18.9l2.9,4.8l-3.2-9.9
		c0,0-1.4-6.8-3.1-9.9c-1.3-2.5-2.8-4.8-4.5-7.1c-1.4-1.7-7.4-8.4-8.9-9.2s-6.1-7.5-9.4-7.9l-5.3-3c0,0-4.9-2.6-6.1-2.5
		c-1-0.3-2.1-0.5-3.2-0.6c-1.4-0.1-8.5-0.2-8.5-0.2l-6.8-0.4l-2.7-2.1c0,0-2.8,1.1-3.5,0.9s-1.9,1.2-1.9,1.2l-2.5,0.4
		c0,0-3.2-2.3-4.2-3.1s-5.3-4.6-6.4-5.6s-4.9-5.6-6-6.1c0,0-3.4-2.9-4.5-3.3l-9.6-5.4l-2.8-1.9c0,0-7.5-4.6-10.5-5.2l-5-2l-6-1.5
		l-17.6-2.3c0,0-9.2-0.8-10.9,0.1l-6.8,1.6h-8.6l-11.4,0.8l-9.4,2.1l-23.2,9.9c0,0,9.6-5.8,10.2-5.5c0,0-10.2,1.4-10.2,2
		s-7.1,6.3-7.1,6.3s-5.7,3.2-6.3,2.5s-3.2,8.6-3.2,8.6l-2.3,1.2c-1.4,1-2.8,2.1-4,3.3c-0.7,1-1.2,2.1-1.7,3.2
		c-0.5,0.7-0.8,1.5-0.9,2.4c-0.1,1.4-1.9,3-1.9,3L244.7,151.6z"/>
</g>
<g>
	<path class="st11" d="M335,267.6c-1.6-9.7-1.5,8.6-1.5,8.6l-1.1-32.9l-0.9-2.3l6.6,5.1c0,0-1.5,11.8,0.5,17.5s-3.7-4.3-3.7-4.3
		V267.6z"/>
</g>
<path class="st11" d="M249.9,209.9h4.3l8.1,3.8l3.8,1.8c0,0,0.4,0.1,3.6,0.8s6.1,1.3,6.1,1.3l2.4,2h3.3l3.8,2.8h2
	c-1.1-0.6-2.1-1.4-2.8-2.3c-0.7-1.3-1.3-2.6-1.9-4l-1.4-1.3c-0.7-0.2-1.3-0.4-2-0.6c-1.5-0.5-4.1-1.1-4.1-1.1s-2.4-0.1-2.9-0.8l-2-2
	l-1.8-0.2L265,209l-2.6-0.4l-2.8-1.1c0,0-2.4-0.7-3.4-0.9c-1-0.3-1.9-0.6-2.9-1l-2.1-0.1c-0.5,0.4-1,0.8-1.5,1.3
	C249.4,207.8,249.4,208.9,249.9,209.9z"/>
<path class="st11" d="M231.5,199.5c0,0,0.5-1.4,2,0.1c1.2,1.4,2.2,2.9,3,4.5l2,3.3c0,0-2.4-6.3-2.6-6.6s-4.6-7-4.6-7l-0.5,2.4
	L231.5,199.5"/>
<path class="st11" d="M363.2,258.6c-0.9-0.9-1.4-2.2-1.3-3.5c0-1.5,0.2-2.9,0.7-4.3l3.7,3.9c1.2,1.1,2.5,2.1,3.9,2.8
	c2.6,1.5,4.7,1.5,5.2,3.6s1.1,3.2,0,4.5s-2.8,0-2.8,0l-3.6-2.1l-1.3-2.6l3.2-1.1l-3-1.2C367.9,258.6,364.3,260.2,363.2,258.6z"/>
<path class="st9" d="M261,230.7c0,0.3,0.2,0.5,0.5,0.5c0.3,0.1,0.5-0.1,0.6-0.4c0.1-0.3-0.1-0.5-0.4-0.6c-0.1,0-0.1,0-0.2,0
	C261.2,230.3,261,230.5,261,230.7z"/>
<path class="st11" d="M540.5,506.5l0.6,2.5c0,0,1.3,0.8,3.5-0.7c1.7-1.2,3.2-2.6,4.7-4c0,0-0.5-0.9-3.2,0S540.5,506.5,540.5,506.5z"
	/>
<path class="st11" d="M265.5,297.2c0,0-13.3,1.3-17.8,0s-9.4-5.2-9.4-5.2s6.1,3.2,7.8,3.6c0,0,0.8,0.6,3.8,0.8s10.9,0.4,10.9,0.4
	L265.5,297.2z"/>
<polygon class="st11" points="265.5,296 266.9,296.8 266.9,298.2 265.5,297.2 "/>
<path class="st8" d="M235.8,225.5l0.3,1.8c0,0,0.6,0.7,0.9,1s3,0,3,0l1.6-0.4v-3.7c-0.3-1.9-0.8-3.7-1.5-5.5
	c-0.4-1.1-5.1-3.6-5.1-3.6l-0.8,1.4l0.8-1.4l-0.8,1.4l0,0"/>
<polyline class="st11" points="236.1,223.8 235.9,224.9 235.8,225.5 232.9,226 236.1,223.8 "/>
<polyline class="st11" points="235.5,226.7 235.8,225.5 232.9,227.6 235.5,226.7 "/>
<path class="st11" d="M379.4,253.8c0,0,0.4,8.8,0,10.5s-1,3.5-1,3.5s2.8-3.8,3-4.9s1.1-1.5,0.8-3.5c-0.3-1.6-0.8-3.2-1.4-4.8
	L379.4,253.8z"/>
<path class="st11" d="M358.6,260c0,0,1,7,0,9.3s-3.9,4.4-3.9,4.4s-1.3,0.4-1.3,2.6s0.6,1.8,0.6,1.8c1.1,0.3,2.4,0.1,3.4-0.6
	c1.3-1.2,3.8-2.2,3.8-3.2V271l3.6,1.2c0,0,2.3,1,2.9,0c0.5-1,1-2.1,1.4-3.1c0-1-0.3-2.1-0.9-2.9c-1-1.1,0.2-2.5-1.8-2.7
	s-5.8-2.7-5.8-2.7L358.6,260z"/>
<path class="st11" d="M364.6,249.1c0.8,1.2,1.7,2.3,2.7,3.2c1.1,0.8,5.5,3,5.5,3c0.1-1,0.1-2.1,0-3.1c-0.2-1.6,1.1-2.5-0.5-3.1
	s-4.7,0-4.7,0L364.6,249.1L364.6,249.1z"/>
<path class="st11" d="M247.8,326.5l-1.6-3.8c-1.5,0.9-2.8,2.2-3.6,3.8c0,0,0.5,0.1-2.6,0s-1.3,30.2-1.3,30.2l-0.5,17.4v13.2
	c0,0,1.6,17.4,3.4,24.5s6.1,27.1,12.6,36.4s25.8,29.3,25.8,29.3s5.5,3.4,8.4,5s4.5,2.6,4.5,2.6s10.8-2.1,12.9-4.2
	s18.7-11.1,18.7-11.1s9.2-6.3,11.9-10.5c0,0,12.9-12.4,17.1-17.7c0,0,8.4-9,12.8-15.3l10.7-14.5l7.4-14.8c0,0,3.4-5.3,6.3-10.8
	s7.9-15.8,7.9-15.8l4.7-12.1v-7.1l-8-5.9c0,0,6.4,4.2,5.5,7.7s-0.9,6.1-3.5,13.5s-11.6,23.2-11.6,23.2l-4,8.2
	c-0.9,3.9-2.4,7.5-4.7,10.8c-4,6.1-10.7,14.5-10.7,14.5l-7.5,9.5l-7.9,8.7l-7.6,8.2l-10,10.5l-10.2,6.6l-8.7,5.8l-10.8,5.6
	c0,0-6.9,6.6-9,4.5s-7.4-4-11.9-7.6s-16.9-15.5-16.9-15.5c-3.5-3.9-6.5-8.1-9-12.6c-3.4-6.6-12.1-34.5-12.1-34.5s-5.5-21.1-4.5-33.2
	v-22l-0.1-24.7c0,0,1-2.2,2.4-2.4c0,0,1.2-2,2.8-2.4C246.1,327.3,247,326.9,247.8,326.5z"/>
<path class="st11" d="M393,474.9c-12.8,16.2-26.2,33.7-30.3,43.2c-2.7,6-6,11.8-9.9,17.1c0,0,13.2-12.6,20.1-21.6
	s23.1-14.4,28.1-21.1s17.5-20.7,20.2-27.9s8.1-21.1,13-29.7s12.6-21.1,17.1-23.8c0,0-9.9,5.4-14.8,11.2s-8.5,9.9-8.5,9.9
	s2.2-12.1,4.9-16.6s6.3-11.6,6.3-11.6s0.5-1.9-6.3,6.7s-12.6,14.8-14.8,21.6s-7.8,17.1-14.7,26.1C399.3,463.4,395.9,469,393,474.9z"
	/>
<path class="st11" d="M481.9,393.1c-11.2,13.9-15.7,25.6-15.7,25.6s-1.8,1.4-4.9,18.9s-7.2,37.3-7.2,37.3s-0.9,6.7-2.7,22
	s-7.2,36-7.2,36s-4,18.7,0,21.3c0,0,1.8-24.4,4.5-28.5s6.7-35.1,6.7-35.1s1.1-19.1,2.8-23.1c0,0,3.8-19.6,5.2-22.8
	c0,0,2-19,4.4-22.9s10.6-22.9,12.3-24.5C481.2,396.1,481.8,394.6,481.9,393.1z"/>
<path class="st11" d="M479.3,383.9c-6,6.1-12.8,16.5-18.9,27c-10,17.2-18.1,34.8-18.1,34.8L430.1,482l-15.4,31.8
	c0,0,3.3-8.2-11.4,12.3c0,0,21.6-8.2,26.2-15.9s0.5,15.9,0.5,15.9l12.2-35.4l4.2-25.1l1.5-19l5.6-15.9c0,0,3-10.8,8.4-15.4
	L479.3,383.9z"/>
<path class="st11" d="M352.9,537.3c4.4,1.8,14.2,4.7,14.2,4.7l2,1.2l-10-1.6c0,0,5.5,3.2,7.1,3.5c1.7,0.1,3.4,0.1,5.1,0l12.6,4.3
	c0,0,4.7,2.2,5.9,2.2s3.9-1.4,6.1-1.2s6.2,0.2,6.2,0.2s4.1-1,7.2-2s7.2-1.7,10.8-2.5s6.9-4.7,6.9-4.7l-2.2-1.4c0,0,1.8,0.9,1.1,1.4
	s-3.7,3.1-3.7,3.1l-4.1,0.4l-5.6,1.4c0,0-3.4,1-5,1.3s-6.5,1.9-8.4,1.5s-6.3-0.2-6.8,0.5c-1,0.8-2.4,1-3.5,0.4
	c-1.5-0.7-7.8-3.5-8.4-3.5s-6.9-2.7-6.9-2.7L352.9,537.3z"/>
<path class="st11" d="M192,554.2c8.7-7.9,19.2-13.7,30.5-16.9c19.1-5.5,49.1-13.9,49.1-13.9l31.1-15.6c0,0,22.1-5.4,25.7-11.4
	s13.8-19.1,13.8-19.1l4.2-7.9c0,0,10.2-7.7,14.4-11.9s12-13.8,12-13.8s-6.6,25.1-12,32.9s-7.8,25.1-14.4,29.9S317.7,526,317.7,526
	s-9.6,7.5-14.4,15.3l-8.4,3l-4.7-7.1l-4.3,7.2l-3.6,9.8l-7.8-14l-6,4.2l-7.2,7.1l-1.2,2.7L192,554.2L192,554.2z"/>
<path class="st11" d="M179.6,332.7"/>
<path class="st11" d="M186.1,332.7c0,0-3.9,3.3-6.5,12.5s-4.8,34.6-4.8,34.6l-3.5,13.3c0,0-4.1,24.8-5.8,29.1s-4.4,16.1-4.4,16.1
	s3-7.1,4.9-8.7c-1,7.5-1.1,15.1-0.3,22.6l2.2,17.3l0.3,10.2l-0.5,12l0.5,8.7c0,0,0,12,0.8,15s0.8-9.5,5.7-9.3l4.1-27l3.8-19.1
	l2.2-9.8c0,0,4.1-5.4,4.4-10.3s0-14.4,0-14.4l-1.9-4.9c1-3.5,1.6-7,2-10.6c0.4-5.2-2.3-36.2,0-36.5s-4.8-13.9-4.8-13.9l-0.5-15.2
	L186.1,332.7z"/>
<path class="st11" d="M200.4,332.7c0,0,6.8,13.8,6.5,22.3s0,35.1,0,35.1v18.8l-1.6,15.4c0,0,3.3,30.6,8.7,40.4
	c0,0,1.1-18.6,5.2-20.9l-3.3-48.3l-0.8-17.4v-16.6l-0.8-9.5c0-1.6-4.6-12-3.3-15.8l1.4-3.8c0,0,0.5-4.1-5.7-1.9"/>
<path class="st11" d="M219.2,327.7c0,0-2.2,1.4-1.6,9.3c0.6,5.9,1.7,11.7,3.3,17.4l3,4.1v-28.7l2.2-3.3L219.2,327.7z"/>
<path class="st11" d="M161.2,354.1l-1.6,7.6c0,0,0.3-0.8-1.6,6.8s0,19.1,0,19.1l1.2,7.1l2.1,6.8v-23.7c1-2.3,1.5-4.8,1.6-7.4
	C162.8,366.9,161.2,354.1,161.2,354.1z"/>
<path class="st11" d="M142.6,428.2c0,0,3.1,18.1,7.4,24.8s10,19.5,10,19.5l1.2,4.8v2.4l-1.2-28v-7.9l-1.7-3.9l-7.7-2.1l-1.9-5.6
	L142.6,428.2z"/>
<path class="st11" d="M161.2,401.5v30.1l-1.2,12.1l1.2,17.2l1.6,25.9v9.1l-1.4,3l-13.8-6.5l1.3-10.7l3,0.8l5.2,0.5l1.4-3.5l-3.3-4.5
	l1.9-4.5v-6l-1.9-27.6l3-6.1l0.5-6.6c0,0-1.6,5-0.3-4.3S161.2,401.5,161.2,401.5z"/>
<path class="st11" d="M122.7,554.2c0,0-16.4-13.6-17-15.2s-10.5-17.3-10.5-17.3l-6-5.9l-8.8-5.8l-7.2-2.5l-5.3-1.2l-3.5-1.6
	c0,0,14,2,16.2,3.1s9,6,9,6l4,0.2l3.2-0.8l6.6-5.6l11.3-11.1l8-7.6l1.4-5.1l1-4.2l1.9-1l5,3.5l-3.9,6.1l-4.5,3.1l-13.4,16.6l-7.6,6
	l-3.3,2.5l-2.9,1.8l10.3,18.1L122.7,554.2z"/>
<polygon class="st11" points="235,217.8 231.5,217.7 234.2,216.5 "/>
<polygon class="st11" points="230.7,215.1 235,215.1 234.2,216.5 "/>
<path class="st8" d="M237.8,301.8c0,0,3.7,3.3,5.4,3.5s6.3-1,7.3-1.3s7.3-2.9,7.3-2.9l5.7-2.9l2-1.2c-1.6-0.6-3.3-0.9-5-1
	c-1.8,0.2-5.7-0.7-7.9-1.5c-1.9-0.6-3.7-1.4-5.4-2.5c-1.4-1-5.7-2.3-5.7-2.3h-3.1c-1.8,0-4.1-3.9-4.1-3.9"/>
<path d="M417.8,135.5c0,0,4.6,3.5,4.6,5.7s3.5,10.5,2.5,12.9c0,0,1.2,9.4,0.8,10.4l0.5-0.7c0,0,1.4-0.3,1.6-0.4s1.9-0.4,1.9-0.4
	l0.9-0.4c0,0,0.5-11.9,0-15.7s-3.1-11.7-3.1-11.7l-2.7-2.1l-3.5,0.9l-0.9-0.7l-0.4,1.7L417.8,135.5z"/>
<path d="M439.5,164.5c0,0,17.6,23.7,16.6,35.7s-3.1,36.4-3.1,36.4s1.4,38.2,1.6,47.1s-12.8,18.2-12.8,18.2s-1.4,2.3-3.6,11.1
	c-3,12.2-23.8,45.1-23.8,45.1s6.2-19.7,7-25.8L426,315c0,0,7.4-12.8,7.4-17.3c0,0-14.5,19.5-17.1,19.5c0,0,4.8-10.6,8.1-13
	s6.9-14.7,6.9-14.7s2.3-4.7,2.5-8.1s2.3-13.6,2.3-13.6s3.1-40.3,2-46.7s1.2-15.5,0.9-18.8s1.1-26.4-1.5-31.8
	c-1.6-3.2-4.1-5.9-7.2-7.7l-1.9-2.5L439.5,164.5z"/>
<path d="M307,143.7c0,0,11,14.4,13.7,26.4s14.5,37.3,14.5,37.3l9.5,24.5l7.2,4.9c0,0,13.9,9.3,3.1-6s-30.6-73.1-30.6-73.1L307,143.7
	z"/>
<path d="M279.2,127.1c0,0-9.6-3.6-15.1-0.1c0,0,3.1-5.7,7.1-5.3s24.2,7.4,25.1,9.5s5,12.5,5,12.5s-6.8-10.8-10.1-12.1
	S279.2,127.1,279.2,127.1z"/>
<path d="M435.2,216.6c0,0,8.7,18.9,5.6,24.8s-12.4,29.6-18.2,35.4S393,293.4,393,293.4s35.7-42.9,37.2-49.9s1.3-30.6-1.2-35.1
	s-5-33.5-5-33.5L435.2,216.6z"/>
<path d="M376.1,110.3c4.6,3.2,20.1,10.2,23.5,16.7c3.4,6.5,13.2,11.7,13.2,11.7l11,2.6c0,0-18.9-9.2-18.2-11.7s-13.7-12-13.7-12
	L376.1,110.3z"/>
<path d="M387.5,125.8c0,0,4,1.4,7.8,3.1c3.2,1.4,6.2,3.1,6.5,4.3c0.7,2.6,23,8,23,8s-18.9-1.4-20.6-3.4s-2.5-1.7-7.2-4.3
	s-13.4-7.5-15.6-6.4S387.5,125.8,387.5,125.8z"/>
<path d="M425.4,145.2c-9.2,1.6-8.6,1.4-28.4,7.7l-9.5,3.7c0,0,11.6-2,14.4-3.4S425.4,145.2,425.4,145.2z"/>
<path d="M389.9,140c0,0,13.3,4,16.5,3.7s16-2.5,16-2.5l-10,4c0,0-8.8,1.7-9.5,0.9S389.9,140,389.9,140z"/>
<path d="M426.8,151c0,0-7.9-0.5-11.6,2.6s-12.4,14.6-12.4,14.6s-3.3,10.3-6.6,10.5s-33.8,6.1-33.8,6.1s34.5,0.2,36.4-2.2
	s4.8-14.2,9.6-18s4.7-8.2,9.3-9.7c3.3-1,6.7-1.6,10.1-1.8L426.8,151z"/>
<path d="M426.9,158.6c0,0-5.3,6.3-6.2,13.2s-4.2,22.5-6.1,24.6s-8.2,19.5-8.2,19.5s11.1-16.4,11.9-20.6s3.3-20.9,3.3-20.9l6.1-10.5
	L426.9,158.6z"/>
<path d="M323.7,120.5c12.5-1.2,18.6-4.2,18.6-4.2s3.9,0.5,8,1.3s8.3,1.8,8.9,3c0,0-6.7-1.2-9.1-0.8s-17.7-1.4-17.7-1.4L323.7,120.5z
	"/>
<path d="M342.8,103.6c5.6-0.7,15.9,0.4,16.5,1.7s9.7,5,9.7,5c-3.3-0.4-6.6-1.2-9.7-2.4c-4.8-1.9-21.5-4.1-26.1-1.1L342.8,103.6z"/>
<path d="M368.9,143.7c-6.7,1.8-26,1.5-26,1.5s12.1,1.3,17.9,1.1s18.5-4.3,18.5-4.3L368.9,143.7z"/>
<path class="st7" d="M246.6,277.2c-2.3-0.6-4.6-1-6.9-1.3C241.9,276.8,244.3,277.2,246.6,277.2c3.3-0.2,2.5-0.7,2.5-0.7L246.6,277.2
	z"/>
<path class="st7" d="M304.6,152.2c3.8,4.5,14.4,17.1,13.2,20.2L304.6,152.2z"/>
<path class="st7" d="M282.8,133.5c4.7,3.7,14.5,17.5,14.5,17.5L282.8,133.5z"/>
<path class="st7" d="M282.1,112.2c1.3-0.1,9.7,2.8,12.3,6.2s7,12,7,12s-7.6-11.7-9.2-12.6S282.1,112.2,282.1,112.2z"/>
<path class="st7" d="M302.5,108.9c5.5-1.9,14.4-2.1,14.4-2.1s10-0.4,11.8,1c-3.2-0.3-6.4-0.3-9.6,0c-3.5,0.5-19.6,4.4-19.6,4.4
	s7.5-2.8,10.1-3.9S302.5,108.9,302.5,108.9z"/>
<path class="st7" d="M338.1,103.3c4.1-1.1,12.9-2.3,12.9-2.3s9.8,0.9,10.8,2.5c-3-0.8-6.1-1.2-9.1-1.2l-18.4,1.3L338.1,103.3z"/>
<path class="st7" d="M327.9,127c9.1,0.8,18.2,0.8,27.2,0l15.5-4.3c0,0-3.4,5.6-9.5,5s-26.9,2.8-26.9,2.8L327.9,127z"/>
<path class="st3" d="M357.1,112.2c10.4,5.4,18.9,4,18.9,4l-11.5-1.9L357.1,112.2z"/>
<path class="st3" d="M369.1,138.2c8.2-2.2,19.6-2,19.6-2s-15.9,2-20.2,3.1l-10,0.9L369.1,138.2z"/>
<path class="st3" d="M349.4,171.4c4.5,0.9,12.7,0.8,12.7,0.8h5.6l-12,1.5L349.4,171.4z"/>
<path class="st7" d="M353.4,165.5c0,0,22.4,4.9,29.8,0c5-3.4,9.6-7.1,13.9-11.3c0,0-5.4,11.6-13.9,12c-5.9,0.2-11.8,0-17.7-0.7
	L353.4,165.5L353.4,165.5z"/>
<path class="st7" d="M367.2,198.6c0,0,27.9-1.8,30.7-7s5.5-10.8,5.5-10.8l-3.5,10.9l-9.1,5.8L367.2,198.6z"/>
<path class="st7" d="M419.8,202c0,0-3.3,20.5-10.7,24s-16,10.6-16,10.6l-6.8,4.7c0,0,17.5-6,20.1-10.6s13.3-20.3,13.3-20.3
	L419.8,202L419.8,202z"/>
<path d="M369.5,170.7c0,0-13.3,3.2-18.8,1.3s-16.3-7.5-16.3-7.5L369.5,170.7z"/>
<path class="st7" d="M438.8,137.2c6.8,0.1,13.3,2.5,18.5,6.8c8.7,7.2,8.7,8.2,8.7,8.2l9.6,8.9c0,0,3.8,12,3.8,15.4
	s-0.9-11.1-4.3-14.2s-13-11.4-13-11.4s-4.3-8.8-9.7-9.7c-4-0.8-8-1.8-11.8-3l-6.2-1.5L438.8,137.2z"/>
<path d="M441.4,148.9c4.7,1.5,18.9,5.9,21.3,11.4c0.4,0.9,8,26.9,8,26.9l-2.1,11.4c0,0-1.8-22.3-4.7-27.1s-0.7-4.8-5-11.2
	S441.4,148.9,441.4,148.9z"/>
<path d="M446.7,164.4c0,0,16.5,27.6,16.3,37.6s-3.5,31.6-3.5,31.6l-3.5,17.1l5.8-13.2c0,0,5-26.1,5-28.3s-3.5-19.5-3.5-19.5
	s-9.2-17.6-11.2-21.2C450.9,166.4,449,164.9,446.7,164.4z"/>
<path class="st7" d="M451.7,318.2c-2.6,4.5-16.6,57.6-26.1,62.2c-6,3-11.3,7.1-15.9,11.9c0,0,3.4-3.4,9.9-9.3s16.1-18.3,16.1-18.3
	l5.4-19.8L451.7,318.2z"/>
<path class="st7" d="M456.8,256.2c0,0-2.2,16.5-5.1,21.9s-9.9,23.9-9.9,23.9s15.3-27,15-29S456.8,256.2,456.8,256.2z"/>
<path class="st7" d="M436.1,142.2c0,0,3.8-3,10.6,1.1s19.8,25.9,19.8,25.9s-11.9-21.4-14.6-23.9s-13.1-5.3-13.1-5.3L436.1,142.2z"/>
<path class="st7" d="M475.8,191.6c0,0,7.9,18.4,3.6,32.2l-1.3,14.5c0,0,5.2-17.9,5.2-20.4S475.8,191.6,475.8,191.6z"/>
</svg>
