<svg id="Layer_1" data-name="Layer 1" xmlns="http://www.w3.org/2000/svg" viewBox="0 0 282.61 48.93"><defs><style>.cls-1{font-size:14px;fill:#fff;font-family:PT Sans;}.cls-2{white-space:pre;}.cls-3{letter-spacing:-1px;}</style></defs><title>designerex-txt</title><text class="cls-1" transform="translate(0 11.9)">I l<tspan x="11.9" y="0">o</tspan><tspan x="19.24" y="0">v</tspan><tspan x="25.83" y="0">e </tspan><tspan x="36.68" y="0">t</tspan><tspan x="41.27" y="0">o dra</tspan><tspan x="71.75" y="0">w</tspan><tspan class="cls-2" x="81.7" y="0"> on m</tspan><tspan x="115.71" y="0">y</tspan><tspan class="cls-2" x="121.73" y="0"> fr</tspan><tspan x="134.69" y="0">e</tspan><tspan x="141.65" y="0">e time</tspan><tspan class="cls-3" x="179.48" y="0">.</tspan><tspan class="cls-2" x="181.38" y="0"> I host m</tspan><tspan x="233.84" y="0">y</tspan><tspan x="239.86" y="0"> </tspan><tspan x="243.6" y="0">o</tspan><tspan x="250.95" y="0">wn </tspan><tspan x="0" y="16.8">blog with m</tspan><tspan x="71.96" y="16.8">y</tspan><tspan class="cls-2" x="77.98" y="16.8"> illustrations</tspan><tspan class="cls-3" x="153.09" y="16.8">.</tspan><tspan class="cls-2" x="154.99" y="16.8"> I also l</tspan><tspan x="198.8" y="16.8">o</tspan><tspan x="206.13" y="16.8">v</tspan><tspan x="212.73" y="16.8">e </tspan><tspan x="223.58" y="16.8">t</tspan><tspan x="228.17" y="16.8">o design </tspan><tspan x="0" y="33.6">with m</tspan><tspan x="41.55" y="33.6">y</tspan><tspan x="47.57" y="33.6"> </tspan><tspan x="51.31" y="33.6">o</tspan><tspan x="58.66" y="33.6">wn illustration</tspan><tspan class="cls-3" x="145.82" y="33.6">.</tspan><tspan x="147.73" y="33.6"> </tspan></text></svg>