<svg id="Layer_1" data-name="Layer 1" xmlns="http://www.w3.org/2000/svg" viewBox="0 0 272.38 48.93"><defs><style>.cls-1{font-size:14px;fill:#fff;font-family:PT Sans;}.cls-2{letter-spacing:-1px;}.cls-3{white-space:pre;}</style></defs><title>developerex-txt</title><text class="cls-1" transform="translate(0 11.9)">I li<tspan x="15.65" y="0">k</tspan><tspan x="22.19" y="0">e </tspan><tspan x="33.04" y="0">c</tspan><tspan x="39.03" y="0">oding m</tspan><tspan x="88.1" y="0">y</tspan><tspan x="94.12" y="0"> </tspan><tspan x="97.86" y="0">o</tspan><tspan x="105.21" y="0">wn designs</tspan><tspan class="cls-2" x="172.25" y="0">,</tspan><tspan class="cls-3" x="173.89" y="0"> both bac</tspan><tspan x="229.65" y="0">k</tspan><tspan x="235.72" y="0">-end</tspan><tspan x="0" y="16.8">and fron</tspan><tspan x="50.26" y="16.8">t</tspan><tspan x="54.56" y="16.8">-end</tspan><tspan class="cls-2" x="81.9" y="16.8">.</tspan><tspan class="cls-3" x="83.8" y="16.8"> I implement using  C++</tspan><tspan class="cls-2" x="225.84" y="16.8">,</tspan><tspan class="cls-3" x="227.48" y="16.8"> Java</tspan><tspan class="cls-2" x="255.93" y="16.8">,</tspan><tspan x="257.57" y="16.8"> </tspan><tspan x="0" y="33.6">and Python</tspan><tspan class="cls-2" x="67.79" y="33.6">,</tspan><tspan class="cls-3" x="69.43" y="33.6"> HTML</tspan><tspan class="cls-2" x="108.65" y="33.6">,</tspan><tspan class="cls-3" x="110.29" y="33.6"> CSS</tspan><tspan class="cls-2" x="136.89" y="33.6">,</tspan><tspan class="cls-3" x="138.53" y="33.6"> Javascrip</tspan><tspan x="195.27" y="33.6">t</tspan><tspan class="cls-2" x="200.24" y="33.6">,</tspan><tspan class="cls-3" x="201.88" y="33.6"> and JQuer</tspan><tspan class="cls-2" x="264.55" y="33.6">y</tspan><tspan class="cls-2" x="270.07" y="33.6">.</tspan></text></svg>