<?xml version="1.0" encoding="utf-8"?>
<!-- Generator: Adobe Illustrator 19.2.0, SVG Export Plug-In . SVG Version: 6.00 Build 0)  -->
<svg version="1.1" id="featured_content" xmlns="http://www.w3.org/2000/svg" xmlns:xlink="http://www.w3.org/1999/xlink" x="0px"
	 y="0px" viewBox="0 0 32.7 32.7" style="enable-background:new 0 0 32.7 32.7;" xml:space="preserve">
<style type="text/css">
	.st0{clip-path:url(#SVGID_2_);fill:#FFFFFF;}
</style>
<g>
	<g>
		<defs>
			<polyline id="SVGID_1_" points="0,0 32.7,0 32.7,32.7 0,32.7 0,0 			"/>
		</defs>
		<clipPath id="SVGID_2_">
			<use xlink:href="#SVGID_1_"  style="overflow:visible;"/>
		</clipPath>
		<path class="st0" d="M11.4,18.5V13H16V8.9c0-4.6,2.8-7.3,7.1-7.3c2,0,3.7,0.2,4.3,0.2v5v0h-3c-2.2,0-2.8,1.1-2.8,2.6V13H27
			l-0.7,5.6h-4.6v14.1H16V18.5H11.4 M26.7,0H6C2.7,0,0,2.7,0,6v20.7c0,3.3,2.7,6,6,6h20.7c3.3,0,6-2.7,6-6V6C32.7,2.7,30,0,26.7,0"
			/>
	</g>
</g>
<title>facebookicon</title>
<g>
	<path d="M117,574.7h-3.2c-2.2,0-2.8,1.9-2.8,3.4v3.6h5.4l-0.7,5H111v14h-6v-14h-4v-5h4v-4.2c0-4.6,3.1-7.2,7.4-7.2
		c2,0,3.6,0.2,4.6,0.2V574.7L117,574.7z"/>
</g>
</svg>
