<svg id="featured_content" data-name="featured content" xmlns="http://www.w3.org/2000/svg" viewBox="0 0 390.92 333.28"><defs><style>.cls-1{font-size:55.38px;fill:#ffccce;}.cls-1,.cls-8{font-family:Phosphate;}.cls-2{letter-spacing:-6px;}.cls-3{font-size:12.24px;}.cls-3,.cls-5,.cls-8{fill:#fff;}.cls-4{font-size:24.24px;}.cls-5,.cls-7,.cls-9{font-size:26.13px;}.cls-6{fill:#ccffd9;font-family:Silom;}.cls-7{fill:#f7d6ff;font-family:Trattatello;}.cls-9{fill:#adddff;font-family:Skia;}.cls-10{fill:#ffa8aa;}.cls-11,.cls-12,.cls-13{fill:#ffb6fb;font-family:Luminari;}.cls-12{letter-spacing:-2px;}.cls-13{letter-spacing:-1px;}.cls-14{letter-spacing:-3px;}</style></defs><title>introduction</title><g id="feat.content"><g id="feat.content_right" data-name="feat.content right"><text class="cls-1" transform="translate(227.43 46.16)">EMI<tspan class="cls-2" x="84.46" y="0">L</tspan><tspan x="102.51" y="0">Y -</tspan><tspan class="cls-3"><tspan x="156.19" y="29.09"> </tspan><tspan class="cls-4" x="158.64" y="29.09"> </tspan></tspan><tspan class="cls-5"><tspan x="-56.58" y="60.45">thinks, wonders, </tspan><tspan x="-27" y="91.8">studies, </tspan><tspan class="cls-6" x="73.56" y="91.8">CODES</tspan><tspan x="156.32" y="91.8">,</tspan></tspan><tspan class="cls-7"><tspan x="-110.38" y="123.16">IL</tspan><tspan x="-89.53" y="123.16">L</tspan><tspan x="-76.54" y="123.16">US</tspan><tspan x="-47.93" y="123.16">TR</tspan><tspan x="-14.58" y="123.16">A</tspan><tspan x="1.1" y="123.16">TES</tspan><tspan class="cls-8" x="43.96" y="123.16">, designs, </tspan></tspan><tspan class="cls-5"><tspan x="-227.43" y="154.52">creates and manages projects,</tspan></tspan><tspan class="cls-9"><tspan x="-34.98" y="185.88">COOKS</tspan><tspan class="cls-8" x="49.26" y="185.88">, dances, </tspan></tspan><tspan class="cls-5"><tspan x="-47.33" y="217.24">sings,</tspan><tspan class="cls-10" x="25.97" y="217.24"> </tspan><tspan class="cls-11" x="31.2" y="217.24">T</tspan><tspan class="cls-11" x="50.36" y="217.24">R</tspan><tspan class="cls-12" x="70.01" y="217.24">A</tspan><tspan class="cls-13" x="84.12" y="217.24">V</tspan><tspan class="cls-11" x="103.04" y="217.24">ELS</tspan><tspan x="151.1" y="217.24">, </tspan><tspan x="-141.22" y="248.6">listens and makes music,</tspan><tspan x="-70.66" y="279.96">and pl</tspan><tspan class="cls-14" x="10.58" y="279.96">a</tspan><tspan x="23.68" y="279.96">ys around.</tspan></tspan></text></g></g></svg>