<?xml version="1.0" encoding="utf-8"?>
<!-- Generator: Adobe Illustrator 19.2.0, SVG Export Plug-In . SVG Version: 6.00 Build 0)  -->
<svg version="1.1" id="featured_content" xmlns="http://www.w3.org/2000/svg" xmlns:xlink="http://www.w3.org/1999/xlink" x="0px"
	 y="0px" viewBox="0 0 32.6 32.6" style="enable-background:new 0 0 32.6 32.6;" xml:space="preserve">
<style type="text/css">
	.st0{clip-path:url(#SVGID_2_);fill:#FFFFFF;}
</style>
<g>
	<g>
		<defs>
			<polyline id="SVGID_1_" points="0,0 32.6,0 32.6,32.6 0,32.6 0,0 			"/>
		</defs>
		<clipPath id="SVGID_2_">
			<use xlink:href="#SVGID_1_"  style="overflow:visible;"/>
		</clipPath>
		<path class="st0" d="M3,28.6v-17h5v17H3 M17,14.2c0.8-1.8,3.1-2.9,5.5-2.9c3.2,0,6.5,2,6.5,6.9v10.4h-6v-9c0-2.5-1.5-3.8-3-3.8
			s-3,1.3-3,3.8v9h-6v-17h6V14.2 M5.9,9.6c-1.5,0-2.7-1.2-2.7-2.7c0-1.5,1.2-2.7,2.7-2.7c1.5,0,2.7,1.2,2.7,2.7
			C8.6,8.4,7.3,9.6,5.9,9.6 M26.6,0H6C2.7,0,0,2.7,0,6v20.6c0,3.3,2.7,6,6,6h20.6c3.3,0,6-2.7,6-6V6C32.6,2.7,29.9,0,26.6,0"/>
	</g>
</g>
</svg>
