<svg id="Layer_1" data-name="Layer 1" xmlns="http://www.w3.org/2000/svg" viewBox="0 0 293.53 48.93"><defs><style>.cls-1{font-size:14px;fill:#fff;font-family:PT Sans;}.cls-2{letter-spacing:-1px;}.cls-3{white-space:pre;}</style></defs><title>plannerex-txt</title><text class="cls-1" transform="translate(0 11.9)">I ha<tspan x="22.41" y="0">v</tspan><tspan x="29.01" y="0">e per</tspan><tspan x="59.3" y="0">f</tspan><tspan x="63.62" y="0">ormed and planned multiple </tspan><tspan x="237.81" y="0">c</tspan><tspan x="243.81" y="0">on</tspan><tspan x="258.97" y="0">c</tspan><tspan x="264.96" y="0">e</tspan><tspan x="272.07" y="0">r</tspan><tspan x="277.25" y="0">ts</tspan><tspan class="cls-2" x="287.89" y="0">.</tspan><tspan x="289.8" y="0"> </tspan><tspan x="0" y="16.8">I am</tspan><tspan x="26.12" y="16.8"> </tspan><tspan x="29.67" y="16.8">v</tspan><tspan x="36.26" y="16.8">er</tspan><tspan x="48.13" y="16.8">y</tspan><tspan x="54.15" y="16.8"> </tspan><tspan x="57.89" y="16.8">w</tspan><tspan x="68.03" y="16.8">ell-organi</tspan><tspan x="126.49" y="16.8">z</tspan><tspan x="132.52" y="16.8">ed</tspan><tspan class="cls-2" x="147.17" y="16.8">,</tspan><tspan class="cls-3" x="148.8" y="16.8"> and I l</tspan><tspan x="190.31" y="16.8">o</tspan><tspan x="197.65" y="16.8">v</tspan><tspan x="204.24" y="16.8">e </tspan><tspan x="215.09" y="16.8">t</tspan><tspan x="219.69" y="16.8">o m</tspan><tspan x="242.3" y="16.8">e</tspan><tspan x="249.25" y="16.8">et and</tspan><tspan x="0" y="33.6">w</tspan><tspan x="10.14" y="33.6">or</tspan><tspan x="22.4" y="33.6">k</tspan><tspan class="cls-3" x="28.69" y="33.6"> with n</tspan><tspan x="70.27" y="33.6">e</tspan><tspan x="77.22" y="33.6">w</tspan><tspan class="cls-3" x="87.18" y="33.6"> p</tspan><tspan x="98.49" y="33.6">e</tspan><tspan x="105.45" y="33.6">ople </tspan><tspan x="135.46" y="33.6">to</tspan><tspan x="147.4" y="33.6">wards the same goal</tspan><tspan class="cls-2" x="270.93" y="33.6">.</tspan></text></svg>