<?xml version="1.0" encoding="utf-8"?>
<!-- Generator: Adobe Illustrator 19.2.0, SVG Export Plug-In . SVG Version: 6.00 Build 0)  -->
<svg version="1.1" id="Layer_1" xmlns="http://www.w3.org/2000/svg" xmlns:xlink="http://www.w3.org/1999/xlink" x="0px" y="0px"
	 viewBox="0 0 537.2 456.2" style="enable-background:new 0 0 537.2 456.2;" xml:space="preserve">
<style type="text/css">
	.st0{fill:#FEFFEB;}
	.st1{fill:#FFE8D2;}
	.st2{fill:#FFBABC;}
	.st3{fill:#5F4C56;}
	.st4{fill:#E9C6B7;}
	.st5{fill:#FF7F83;}
	.st6{fill:#94003A;}
	.st7{fill:none;stroke:#240001;stroke-miterlimit:10;}
	.st8{fill:#FFFFFF;}
	.st9{fill:#FF7256;}
	.st10{fill:#240001;}
	.st11{fill:#E3FEFF;}
	.st12{fill:#0598B4;}
	.st13{fill:#B1DDC6;}
	.st14{fill:#165530;}
</style>
<title>portraitart</title>
<polygon class="st0" points="70.4,329.9 65.8,333.2 59.7,340.1 33.8,372.5 10.3,405.5 6.1,422.5 9,436.8 17.5,445.3 33.2,453.3 
	35.6,455.7 88.9,455.4 59.4,424.2 39.5,410.6 79.4,370.7 94.3,354.7 "/>
<polygon class="st0" points="445.7,441.3 452.3,455.6 452.7,455.8 509.2,455.8 490.6,414.4 "/>
<polygon class="st0" points="268.6,226.8 228.3,237.5 226.5,279 243.5,356.6 277,377.4 312.8,338 307.2,312.8 324.5,262.7 
	298.8,209.4 "/>
<polygon class="st0" points="249.6,23.4 220.8,61.2 210.4,93.6 212.6,103.5 216.4,130.1 213.1,129.4 209.2,137.9 205.2,149.7 
	204.8,155 203.8,163.7 204.9,169.5 209.5,175 213.2,176.9 213.6,181.3 212.5,186.9 215,190.7 219.1,199.5 220.2,208.7 222.6,219.2 
	225.4,226.3 228.6,232.7 234.5,233.5 252,223.7 258.8,207.8 275.6,136.5 261.5,88.7 252,74.2 "/>
<path class="st1" d="M488.7,424.5L488.7,424.5c7.2,7.7,11.8,24.3,11.8,27.2v4.2h36.3l-16.4-41.8l-3.3-4.5L488.7,424.5z"/>
<path class="st2" d="M453.1,455.6c0,0,6.4-6.4,11-8s8.4-8.5,12-8.7s14.3-9.2,14.3-9.2s5.4-6.4,10.2-6.4s11-5.1,11-5.1h10.8l-2.9-7.6
	h-5.4l-15,9.1l-3.1-0.3l-2.7,1.6l-5.6,3.3l-11.1,7.2l-10.6,6.2l-8.5,5.7l-2.9,3.1l-3.5,3.6l-1.4,0.8l2.1,3.8l-0.4,0.5v0.5
	L453.1,455.6l-0.1-0.1L453.1,455.6z"/>
<path class="st3" d="M224.6,224.4l-7.1,38.4l9.4,56.9l31.2,51.5l17.6,11.5l32.5-27.9l31.4-35.9l14.9-41l12-16.9l5.2-13.9h8.6
	l7.2,3.9l29.2,11.2l17.9,12.2l11.1,3.6l12,7.7l2.7,0l3.1,2.3l0.8,3.6l0.6,2.7l4.5,6.8l1.8,1.5l4,6.3l8.1,12.5l13.6,22.2l4.8,9.6
	l9.9,20.1l11.7,20.6l5,8.6l0.8,1.7l-6.6,4l-12,3.6l-33.8,19.7l-18,11.6l-3.4,2.2l-5.7,0.8l-4.5,3.8l-5,3.7l-3.8,2.3l-9.1-0.2h-8.3
	l-11.8,0.2H154.2l-1-2.1l-6.3-14.5l-2.6-6.1l-1.7-5.5l-0.6-11.4l-0.2-7.5l-1-11.3l-7.6-5.8l-4.2-1l-2.2,3.2l-18.4-12.2l-6.5-3.8
	l-12.3-12.1l-12.1-11l-5.1-5.3l-8.8-13.8l-1.9-3.4v-2l5.1-5.9l9.9-10.8l17.7-20.1l14.3-17.4l25.7-26.1l4.5-4.1l12-7.4l6.1-3.5
	l3.4-1.3l15.4-4.5l6.8-2l3.9-0.4h19.8l3.3-0.3l8.6-1.5L224.6,224.4"/>
<path class="st1" d="M229.3,45.4c0,0,6.3,3.8,8.3,9s-0.7,14.8-0.7,14.8l-0.8,11.2v7.1c0,0-1.6,5,0,8.9s3.6,10.8,3.6,10.8l-2.5,11.5
	l-3.3,6.4l16.6,4.4l-2.1,13.1l-3.2-2.7h-4.4l-4.8-3.4h-1.8l0.2,6.6c0,0-0.1,1.4,2.6,2.3s9,2.4,9,2.4l4.5,1.1c0,0,1,4.1,0,6.6
	s-2.6,6.9-4.5,11.4s-1.2,12.3,1.1,16.2c0.8,1.4,0.8,3,1.7,4.3s3.2,3.5,3.7,5.7S255,212,255,212l-1.7,9.4l-1.2,2.3l-0.8-7.2
	l-8.4-14.8l-9.8,5.4l-9,1.2l-5.2-0.7c0,0,3.5,3.7,5.2,4.5s6.1,1.2,8,0.8l6.4-1.1l0,0c1.1,2.1,1.4,3.1,1.9,10c0.2,2.1,0,4.3-0.6,6.3
	c-0.9,1.4-2.1,2.5-3.6,3.3c-2.8,1.8-6.7,0-6.7,0l-3.2-1.6l5.3,4.5l8.2,1.6l12.3,0.2l16.8-1.9l10.1-2l2.2-38.2l2.1-38.7l-5.3-32.4
	l-27.1-81.2L229.3,45.4"/>
<path class="st1" d="M273.3,231.5c0,0,8.9,13.8,6.8,21.8c-1.5,5.6-3.7,20.9-4.9,29.4c-0.5,3.7-0.6,7.5-0.1,11.3
	c1,7.9,2.5,22.3,0.5,28c-2.7,8.1-24.5,36.7-24.5,36.7s13.8,13.5,23.2,16.6c4.1,1.3,39.3-29.8,39.3-29.8l25.9-36.5l22-41.3l-17.9-31
	l-15.9-15.6l-32.4-4.4L273.3,231.5z"/>
<path class="st1" d="M72.4,349.5l-49.7,55.8c0,0,3.3,11.5,11.6,18.1s29.1,15.5,29.1,15.5l8.8,7.1l4.3,5.6l1.8,4h20.6l-30.2-27.9
	L60,407.1l8.7-26.8l8-17.8l2.9-5.8L72.4,349.5"/>
<path class="st2" d="M76.6,355.6c0,0-5.4,6.4-8.4,10.7c-3,4.3-19.6,23.2-19.6,23.2c-3.2,2.1-6.3,4.5-9.1,7.1
	c-2.8,2.7-10.6,9.2-10.6,9.2l4.8,6.4c1.6,3.2,3.8,6,6.6,8.3c4.4,3.5,16.6,10.9,16.6,10.9s12.3,7,13.6,7.5S81,449.5,81,449.5l3.1,5.3
	l17,1.1l-17-15.2l-11.5-20.9L89.8,404l15.9-19.1l2.7-3.2l-5.9-3.3l-5.5-5.3l-3.1-3.2l-8.8-8.1l-5.6-5.2l-2-1.9L76.6,355.6z"/>
<path class="st1" d="M39.5,455.8c0,0-13.6-12.7-18.3-15.7c-3.8-2.6-7.4-5.5-10.8-8.6c-2-0.7-3.3-2.7-3-4.8
	c0.5-3.6,2.5-12.5,2.5-12.5l0.4-8.7L6.1,413l-4.8,12.8L1,428.4l-0.2,1.7l0.6,6.2l0.5,4.2L3,443l4.2,6.4l5,6l0.2,0.4L39.5,455.8
	L39.5,455.8z"/>
<path class="st4" d="M211.4,173.2c-0.2,0.4-0.2,0.9,0,1.3c0.3,0.5,3.4,1.9,3.4,1.9c0.4,1.1,0.7,2.3,0.8,3.5v9
	c0.3-0.4,0.5-0.9,0.6-1.4c0-0.4,0.1-2.4,0-3.5s0-3.5,0-3.5v-4.6c0.3,0.2,0.7,0.4,1.1,0.6l1.7,0.5c0.5,0.1,1,0.5,1.1,1
	c0.2,1.2,0.3,2.4,0.4,3.6c0,1.5-0.2,2.9-0.7,4.3c-0.4,0.5-2.3,5-2.3,5l3,0.2l2.8-11.3l-4.5-7.8l-5.7-1.7l-1.8,2.8"/>
<path class="st4" d="M226,109.5c0-0.2-1.3,1-0.9,2.5s2.9,5.6,2.9,5.6l1.4,6.6l0.2,4l4.4-4.8l0.5-7.5l3.2-5.2l-2.4-0.9l-3.9-1.8
	l-3.3-1.2L226,109.5z"/>
<path class="st1" d="M210.4,93.6c0,0,4.7,5.6,5.1,7.4l1.5,8l1.1,3l0.2,4.7l-4.9-4.3l-1.7-7.9l-1.7-3.7l-0.4-4.5l0.9-2.7"/>
<path class="st1" d="M209.7,169.3c0,0-2.6,0.8-2.2-2.6s2.7-10.4,3.1-11.6l0.2-0.3l2.2-3.2l4.3-5.7h0.1c0.4-0.7,5.7-9.2,5.7-9.9
	c0.5-2.2,1.1-4.3,1.8-6.4l0,0c0.1-0.7,1.3-6.9,0.9-9.6s-0.9-4.2-1.4-6.3c-0.2-0.7,0.3-1.4,1-1.6c0.4-0.1,0.8,0,1.1,0.3h-0.1
	c0.6,1.4,1.1,2.8,1.5,4.2c0.1,0.2,0.2,0.4,0.4,0.6l5,4.3c0.4,0.3,0.6,0.9,0.4,1.4L219,163.3c-0.1,0.3-0.3,0.5-0.5,0.7l-8.9,5.5"/>
<path class="st2" d="M239.4,235.6c0,0-7,16-6.6,22.7c0.4,6.7-3.6,35.9,0,45.2c3.6,9.3,13.9,33.6,14.1,40.3
	c0.2,6.7,12.9,23.5,16.7,24.4c3.8,0.9,10.7,7.3,10.7,7.3s22.3-15.9,24.5-18.7c2.2-2.8,24.3-26.8,24.3-26.8l8.1-14l11.1-25l8.8-14.9
	l5.5-6.8l10.8,8.7l-10.7,27.8l-19.6,28.7l-27.2,26.2l-20.1,13.8l-14.1,8.2l-14.9-8.1l-13.5-11.7l-10.1-16.5l-14.1-36.7l-2.5-23.2
	l1.8-23l0.7-23.4l1.5-7.9l2.5-2.3c0,0-0.4,0.4,1.6,2c1.9,1.3,4,2.4,6.2,3.3l4.6,0.4"/>
<path class="st2" d="M213.1,129.5c0.3,0.7,0.6,1.3,1.1,1.9c0.6,0.4,1,1,1.3,1.7c0.5,0.6,1.3,0.9,2.1,0.7l1.6-1.2l1.7-1l0.4-4.7
	c0.1-1.2-0.3-2.3-1.1-3.2l-0.5-0.6l0.4,6.5l-1.5,0.4h-3l-1-0.6l-0.2-0.3h-0.8l-0.4,0.5"/>
<path class="st5" d="M215.2,126.2c0.1,0.7,0.5,1.4,0.9,2c0.6,0.2,1.3,0.3,2,0.2l1,0.3l0.6,0.2c-0.2-1.3-0.4-2.6-0.7-3.9
	c-0.2-0.6-0.4-1.3-0.5-2l-0.3-1.5l-0.4-1.2c-0.2-0.4-0.4-0.7-0.7-0.9c-0.5-0.1-0.9-0.2-1.4-0.3l-0.6-0.4l-0.9-1.2l2,0.7l2.4,2.1
	l1.1,2.6l0.4,2.8v3.7l-2.4,0.5l-3.1-0.8l-0.2-1.6L215.2,126.2z"/>
<path class="st2" d="M215.5,118.8c0.5,0.4,0.9,1,1,1.6c0,0.8,0.2,5,0.2,5c0,0.5-0.1,1-0.4,1.5l-1,1.3l-1.1-0.5v-9.2L215.5,118.8z"/>
<path class="st2" d="M214.1,116.8l2.7,1.8l2.2,2.6l1.1,3.9l0.9-0.9l-1.6-4.8l-1-2.1l-0.3-0.5c-0.4-0.6-1.6-2.2-2-2.7s-2.3-2-2.7-1.8
	s0,4.1,0,4.1L214.1,116.8z"/>
<path class="st2" d="M239,111c0,0-2.1,9.7-0.3,10.3s6.7,3,6.7,3l6.7,4.8v4.1l-8.4-1.6l-4.2-2.2h-2.3l-1.8,1.1l1,0.4l0.8,0.9v5
	l-1.6,6.6l-2.8-5.2L239,111z"/>
<path class="st6" d="M448.1,447.6l8.1-5.9l17.7-11.6l6.4-2.5l17-12.4l5.4-0.2l2-1.5l8.8-5.5h5.5l2.6,7.4c-2.3-1.1-4.8-2-7.2-2.8
	c-2.8-0.9-3.6-0.6-5,1.6c-1.4,2.2-8.7,5.5-10.2,5.4s-3.6,2.4-4.4,2.9s-7.7,3.5-10.4,6.1c-2.9,3-6.3,5.4-10,7.3
	c-4.3,2-6.3,4.8-12.8,8.7c-4.1,2.5-7.4,6-9.8,10.1l-2.9-6.7"/>
<path class="st7" d="M451,455.8"/>
<polygon class="st8" points="239.4,131 237.9,136 238.6,138.3 243.3,139.9 248.1,139.3 249.6,136.5 248.9,134 239.4,129.2 "/>
<line class="st7" x1="451.7" y1="455.6" x2="448.1" y2="447.6"/>
<path class="st6" d="M30.5,405.3l12.1,1h0.6l12.5,3.2l0.9,0.3l13.2,7.4c0.8,0.4,1.6,0.6,2.5,0.4l4.2-1c0.7-0.2,1.4-0.6,1.9-1.2
	l4.9-6.1l0.4-0.4l12.2-11.2l0.2-0.2l6.8-7.2l0.6-0.9l2.2-4.6c0.3-0.8,0.4-1.6,0.2-2.4l-0.2-0.9c-0.2-0.9-0.8-1.6-1.5-2.1l0,0
	c-1-0.7-2.3-0.7-3.4-0.2l-2.4,1.2l-0.5,0.2c-0.5,0.1-1.9,0.7-4.4,3.1c-2.5,2.4-5.6,5-8.3,7.8l-0.6,0.8c-1.7,3.3-4.1,6.1-7,8.4
	c-4.9,3.8-9.3,3.8-9.3,3.8l-4,0.4c-0.6,0.1-1.2,0-1.7-0.2l-2.1-0.8l-0.6-0.2l-7.9-1.4h-0.7l-10.4,0.6h-0.6l-4.2,1L30.5,405.3
	L30.5,405.3L30.5,405.3z"/>
<path d="M241.6,132.7c0.1,1.1-0.1,2.2-0.4,3.3c-0.3,0.6-0.8,1.1-1.3,1.6l-1.7,0.4v-9l3,1.6"/>
<path class="st9" d="M216.7,193.7"/>
<polyline class="st9" points="242.7,198.3 236.8,197.6 229.3,195.7 224.6,192.8 220,191.4 216.1,191.2 213.2,188.8 215.4,192.3 
	216.7,193.7 215.6,196.9 215.9,202.1 217.4,204.9 222.4,207 229.5,205.4 237.1,202.3 242.7,199.4 244.3,198.8 242.7,198.3 "/>
<polyline class="st8" points="214,117.6 217.6,118.8 219.6,123 219.5,129 216,129 214.3,126.6 214,117.6 "/>
<polyline class="st10" points="213.7,119.8 216,120.4 213.4,116.8 212.6,118.1 213.7,119.8 "/>
<path class="st7" d="M213.4,113.6c0,0,0.2-0.2,1,0.9s1.9,2.3,1.9,2.3l1.3,1.5"/>
<path d="M214.2,120.9l-0.4,5.7l1.5,0.3c0.7-0.3,1.3-1,1.5-1.8v-2.9c-0.1-0.8-0.4-1.5-0.9-2.2l-3.1-3.2v2.7l1.1,0.5"/>
<path class="st2" d="M278.7,232.4c2.7,5.9,11.3,16.1,9.3,25.4c-2,9.3-6.6,30.4-6.6,30.4l-2.7,17.3c3-3.2,5.5-6.8,7.4-10.7
	c2.5-5.8,11.4-16.9,11.4-16.9s1.3-3.2,3.4-10.8s6.6-18.3,9-16.1s-4.3,26.9-4.3,26.9l-3.4,16.9c0,0-5.2,10.3-3,15.4
	c2.2,5.1,20.8-8.3,22.5-15.4c1.7-7.1,12-31.1,12-31.1l4.5-15.2c0,0,5.6-4.4,4.9,2.5c-0.7,6.9-4.9,23.3-4.9,23.3l-4.5,7.2
	c0,0,13.3-10.5,20.9-3.5s9.6,13.5,9.6,13.5l11.6-23.2l4.5-10L374,251l-8.9-2l-9.7-10l-4.3-12l1.7-18.4l-1.7-13.4l-13-14.1
	L278.7,232.4"/>
<path class="st4" d="M237.1,112.3l-2.4,1.5c-0.2,0.2-0.4,0.4-0.5,0.7L233,119c-0.2,0.6-0.9,1-1.5,0.7c-0.4-0.1-0.7-0.5-0.8-0.8
	c-0.5-2.3-1.2-4.7-2.2-5.3l-1.7-1c-0.8-0.5,1.6,10.9,1.7,11.6l0,0c-0.6,1.5-1,3-1.4,4.6l0,0l-1.2,11.3v0.4
	c-0.8,1.6-6.7,12.4-7.6,13.2l-0.9,0.6c-1.6,0.9-3,2.3-3.7,4c-0.3,0.6-0.3,1.4,0,2l1.7,3.3c0.4,0.8,1.3,1.1,2.1,0.7
	c1.9-0.9,4.5-3.2,5.9-3l4.3,0.2c-1.6,5.8,2.5-6.2,2.7-6.7l4.7-15.8l0,0l3.5-16.3v-0.2l0.5-8.1c0-0.1,0-0.2,0-0.3l-0.2-1.2
	c-0.2-0.6-0.9-1-1.5-0.7C237.3,112.2,237.2,112.2,237.1,112.3z"/>
<path class="st4" d="M236.9,45.3c0,0,3-2,8.4,0s7.9,4.4,7.7,9.5s1.9,12.2,0.5,19.4c-0.9,4.8-2.1,8.4-2.9,11.8
	c-0.4,1.8-2.1,3.1-1.5,4.9h0.1l1.1,2.5c0.1,0.1,0.1,0.3,0.1,0.4l0.5,6.7c0,0.3,0.1,0.5,0.3,0.7l2.9,3.6c0.1,0.2,0.3,0.4,0.3,0.6
	l0.6,3.8l0,0c0,0.7,0.5,7.5,2.8,10.5c0.9,1,1.6,2.2,2.1,3.5c0.2,0.5,0,1.1-0.4,1.4l0,0c-0.5,0.6-0.5,1.4,0.1,2c0,0,0.1,0.1,0.1,0.1
	l6.7,4.5c0.5,0.4,0.8,1.1,0.5,1.7l-2,4.5c-0.3,0.7-1.2,1-1.9,0.6c-0.2-0.1-0.3-0.2-0.4-0.3l-1.8-2c-0.2-0.3-0.6-0.5-1-0.5l-9.5-3.4
	c0,0,4.7,2.4,4.7,5.8c0,1.7-10.8,0-9,1.7s4.3,3.2,2,6.5l7.9-1.1h0.2c5.3,2.2,9.7,6.1,12.7,11c5.1,8.9,8.3,17.8,11.4,22.2
	s-3.5,26.3-3.5,26.3c-0.2,3.6-5.7,9.6-6.9,10.9c-0.1,0.2-0.3,0.4-0.3,0.6c-0.5,1.7-3,9.7-8.1,12.5l-13.3,7.6l28.4-3.7l2-0.4l8.1-4.4
	h0.1l9.6-2.7h0.1l14.4-5.2h0.1l13.1-6.5h0.1l4.6-3h0.1l2-1.5l0.4-0.5l15-31.2v-0.3l9.2-46.3c0.1-0.3,0-0.7-0.2-1l-4-6.3l-0.2-0.4
	L334.5,60c-0.1-0.4-0.3-0.7-0.7-0.9l-29.9-15.7h-0.2l-15.1-12.3l-0.5-0.2l-21.6-6.3h-0.7l-14.4,3.2l-0.6,0.3l-8.2,7.8l-0.2,0.3
	L236.9,45.3"/>
<path class="st6" d="M228.4,233.4c-1.6,5.3-2.5,10.7-2.8,16.2c-0.2,8-1,19.8-1,19.8s-2.8,18-1.5,24.3l2.5,12l8,21.3l5.1,10.1
	c0,0,6.5,21.9,10.9,25.8c4.4,3.9,19.2,15,19.2,15l7,2.2l15-7.7c0,0,8.9-5.5,13-10.1c4.1-4.6,15.2-10.1,18.6-15.2
	c3.4-5.1,15-17.1,15-17.1l13.9-18.6l4.3-14.9l7.4-17.1l3.7-18.2l5-6.4l8.8,3.6L363,299l-7.6,14.5l-7.9,10.7l-10.3,10.1l-5.3,9
	l-9.1,9.7l-23.7,19.9l-15.5,8.2l-9.7,5.2l-7.3-3.4L246.7,365l-12.9-15.9l-13.7-43.4l-2.5-16.1v-47.5l0.5-10.6l5.1-4l1.5-0.7h1.1l3,5
	L228.4,233.4z"/>
<path class="st6" d="M238.5,141.8c0.3,1.4,1,2.7,2.1,3.7c1.7,1.2,6.7,0.9,8.7,0c1.2-0.6,2.2-1.6,2.8-2.8l-2.8-1.4l-1.7-1.2l4.8,0.2
	l10.3,1.6l3.2,1.3l-6.9,0.9l-3.1,0.3c-1.1,1-2.3,1.6-3.7,2c-2.5,0.5-5,0.7-7.6,0.8c0,0-3.2-0.1-3.9-0.7S238.5,141.8,238.5,141.8z"/>
<polygon class="st4" points="248.1,133.9 248.7,136.7 246.9,139.6 254.2,140.4 257.1,138.3 255.2,136.7 "/>
<path class="st6" d="M243.3,126.6c0,0,3,2,1.9,2.7l-2.6,1.6l13.3,5.8l8.8,5.9l1.2,0.5c0,0-0.7-2.9-2.5-3.8S243.3,126.6,243.3,126.6"
	/>
<path class="st6" d="M326.6,213c0.8,4.8,4.4,3.5,7.3,1.4c0.6-0.4,1.4-0.2,1.8,0.5c0.2,0.3,0.2,0.7,0.1,1l-0.2,0.4l-3,6.2l-2.1,4.3
	l0,0l-8.8,23.7c-0.4,1.3,0.3,2.6,1.6,3c0.9,0.3,1.8,0,2.4-0.6l5.9-6.7c1.2-1.3,2.1-2.9,2.7-4.6c2-5.8,6.8-19.5,9.2-20.6
	c0.8-0.4,1.5-0.9,2.2-1.5c0.6-0.4,1.4-0.4,1.8,0.2c0.2,0.3,0.3,0.6,0.3,1l-0.5,2.6c0,0.1,0,0.3,0,0.4l2.5,19.1c0.1,0.5,0.5,1,1,1.1
	c1.4,0.3,3.9,1.2,3.6,3.1s-4.3,14-4.6,14.8l0,0c-0.3,0.6-3.2,7.2-5.2,7.3s10.8-2.2,12.1-7.2s6.1-3.8,8-3.5c0.5,0.1,0.8,0.4,1,0.8
	l0.5,1.2c0.2,0.6,0.9,0.9,1.5,0.7c0,0,0,0,0.1,0c0.6-0.1,1.3,0.2,1.7,0.6c1.8,1.3,3.4,2.9,4.8,4.7c0.5,0.5,1.3,0.5,1.8,0
	c0.1-0.1,0.2-0.2,0.3-0.3l3.5-7.8c0.1-0.2,0.1-0.3,0.1-0.5v-1.7l-0.6-3.7c-0.1-0.3-0.2-0.5-0.4-0.7l-5-4.4c-0.2-0.2-0.5-0.3-0.8-0.3
	h-3.8c-0.3,0-0.6-0.1-0.8-0.3l-7.5-6.6l-0.3-0.3l-3.1-5.7v-0.3l-1.5-6.8v-0.3l-0.4-10.2v-0.2c-0.1-0.6-0.7-4.3-0.5-5.2
	s3.1-11.4,3.1-11.4l2.4-7.3c0.1-0.3,0.1-0.5,0-0.8l-3.6-11.7c-0.1-0.4,0-0.9,0.3-1.2l9.1-10.2c0.2-0.2,0.3-0.4,0.3-0.7l1.9-14.8
	c0-0.2,0-0.4-0.1-0.6l-3.3-8.6c-0.1-0.4-0.4-0.7-0.8-0.8l-11.2-3.2h-6.6l-0.8,0.3l-4.1,3.1l-0.6,0.2l-3.6,0.4h-0.5l-5.4,2.9
	l-0.3,0.2l-1,0.9l0,0c-0.6,0.4-1.4,0.4-1.8-0.2c-0.2-0.3-0.3-0.6-0.3-1l0.7-3.1c0.1-0.7-0.4-1.4-1.1-1.5c-0.4-0.1-0.8,0.1-1.1,0.4
	l-3.3,4c-0.3,0.3-0.3,0.8-0.2,1.2l4.1,12.9l0.2,0.4c0.6,0.7,2.3,3.4-0.2,9.7c-1.7,4.3-3.1,8.7-4.2,13.2l-6.9,30.1
	c-0.2,0.6-0.6,1.1-1.1,1.4c-3.9,1.6-24.4,9.9-34.8,14.8c-0.6,0.4-0.8,1.2-0.4,1.8c0.2,0.4,0.6,0.6,1,0.6l23.7-1
	c4.5-0.2,8.7-2.6,11.1-6.4l8.2-12.9c0.2-0.7,1-1.1,1.7-0.8S326.8,212.3,326.6,213z"/>
<path class="st2" d="M333.2,157.4c-0.2,1.5-1.4,12.1-1.4,12.1l-2.9,7.3l-1.2,5.8l0.3,3.5l4.8,2.5l5.1,4.1l5.1-1.6l8.1-10.2l7.7-8.5
	c0,0,5.4-6.4,5.9-7.9s0.3-8.1,0.3-8.1l-7.4-10.3l-7.1-1.6c0,0-3.4-1-5.1,0s-8.4,5.8-8.4,5.8s-2.5,2.7-3.8,3.3
	S333.2,157.4,333.2,157.4z"/>
<path class="st4" d="M222.2,159.4c-0.1,0-0.5-0.1-4.1,1l-1.9,1.9c-0.3,1-1.3,2-0.3,2.3c1.2,0.4,2.3,1.2,3.1,2.1
	c3.5,3.1,7.4,1.1,7.5,4.9c0,1.4-1,3.6-0.3,5.6s0,0.4,0.7,0.4l0.6,0.6c1.2-0.2,2.3-0.4,3.5-0.7c1.9-1.9,2.8-4.6,2.4-7.2
	c-0.7-4.3-1-4.8-4.7-9.5l-1.8-0.9l-1.7-0.5L222.2,159.4L222.2,159.4z"/>
<polygon class="st11" points="333.4,196.5 337.8,190.4 339.1,191.4 339.7,195.1 339.7,201 339,204 336.8,207.1 332.3,208.3 
	330.1,208.3 327.3,207.1 "/>
<path class="st6" d="M220.8,61.3l7.1-9.2c0,0-0.7-2.9,4.1-4.2c4.8-1.3,12.5-4.4,12.5-4.4l2.4-1.9c0,0-2.4-2.5,0-2.1
	s10.8,9.6,10.8,9.6l6.9,8.4c0,0,6.5,6.5,6.5,10c0.1,3.3,0.5,6.6,1,9.8l0.6,5.5l-0.2-7.1c0.1-1.2,0.5-2.5,1-3.6
	c0,0-1.2,15.5,2.1,20.1l9.2,13l2.7,3.8l6.1,6.7l4.4,5.4l3.8,6.1v2.9l4,23.6v8.7l-0.8,11.1l0.8,4.4l2.9,6.1c0,0-2.1-2.5-1.5-11.1
	s1.5-17.5,1.5-17.5s-1,13.3,0,15.3s5-37.1,5-37.1l-7.9-36.4l-32.6-56.9l-12.6-11.6l-15.5,1.7l-8.1,1.9l-6.3,6.5l-2.8,2.9l-2.9,0.6
	L220.8,61.3L220.8,61.3"/>
<path class="st1" d="M350.1,157.9c0,0,3.4-0.1,4.4,0.7c0.9,0.9,1.6,1.9,2.1,3v6.6l-2.1,2.1l-3,1.8l-2.2,1l0.9-1.8c0,0,0.7,0.2,2.8-2
	s2-3.9,2-3.9l-0.4-3.1l-0.6-1.9l-1-1h-1.4l-1.6-1c0,0-1.5-0.7-0.7-0.7"/>
<path class="st1" d="M339.8,178.8c0,0,4.1,2.4,5.5,1.6l4.9-2.4l2.6-2.1l2.1-1.6l1.9-0.3c0,0,0.6-0.3-0.3,1s-2.4,4.8-2.4,4.8
	l-2.9,2.7L349,184l-1.8,3.5l-1.7,2c0,0-2.2,3.4-4,2.6s-4.2-4.5-4.2-4.5l-4.4-2.1l-2.3-3.1v-3.8l1.2-0.5c0.7-0.3,1.6-0.5,2.4-0.3
	l2.6,0.5L339.8,178.8z"/>
<path class="st1" d="M357.4,145.2c-0.8-0.1-1.6,0.5-1.7,1.3c-0.1,0.6,0.2,1.2,0.8,1.5c1.5,1.1,3,2.4,3.3,3.5s2.8,4.8,3.7,5.9
	c0.2,0.3,0.3,0.6,0.3,1v1.4c0,0.2,0,0.4-0.1,0.6l-2.9,7.3l3.7-4.6c0.3-0.2,0.6-0.4,0.8-0.7l0.6-6c0.1-0.3-0.3-0.2,0.1-0.3l-0.7-3.3
	c-0.2-1-0.7-1.8-1.5-2.4l-0.2-0.2l-3.9-4.4l-2.1-0.7h-0.2V145.2z"/>
<polygon class="st6" points="317.4,153.7 327.3,157 331.7,148.3 315.1,142.6 315.1,152.4 "/>
<path class="st6" d="M309.9,174.2l3.8,9.8c0,0-1.3-16.1,4.9-23.8l6.3-6.4l-10.5-3.3l-5.2-0.7c0,0,3.4,0.6,0.7,11.8
	s-1.3,18.2-1.3,18.2S308,175.3,309.9,174.2z"/>
<path class="st12" d="M328.5,188.3l2.6-0.8c0.5-0.5,1.2-0.7,1.9-0.4c1.3,0.4,4.2,2,4.6,2.9c0.2,0.3,0.3,0.7,0.4,1
	c0.3,1-2.1,7.9-2.1,7.9l-3.5,4.8c0,0-1.8,2.6-2.9,3.1c-0.7,0.3-1.5,0.4-2.3,0.4l-1.7-1.2l-2.1-5.4l-0.3-5.1c0.3-1.4,0.7-2.8,1.2-4.1
	c0.6-0.9,1.2-1.8,1.8-2.7L328.5,188.3z"/>
<path class="st13" d="M327.7,205.8"/>
<polyline class="st14" points="327.5,184 326.4,198.2 329.5,198.2 330.6,184 327.5,184 "/>
<path class="st7" d="M330.4,187.5c1.2-0.7,2.8-0.7,4,0c1.8,1.1,3.4,2.4,4.7,4c0.3,0.3,0.5,0.8,0.6,1.2l0.6,2.5
	c2.8-0.5,5.3-2.1,6.9-4.4c2.4-3.7,7.2-9.9,7.2-9.9l2.3-0.9"/>
<path class="st7" d="M340.3,195.1v3.8c-0.1,2.9-1.2,5.7-3.2,7.8c-1.2,1.2-5.5,1.8-7,1.7l-1.2-0.4c-1.2-0.6-2.3-1.3-3.3-2.1
	c-1-1.7-1.7-3.5-2.1-5.4c-0.2-1.7-0.3-3.4-0.3-5.1c0.2-0.9,1.1-3.4,1.2-4.1c0.5-1,1.1-1.9,1.8-2.7l1.1-0.6l-0.8,10.2h3.1l0.9-10.8
	l0.2-3.5h-3.1l-0.3,4.1"/>
<path class="st7" d="M324.2,213l-6.7,4.5l-14.5,6.9c-1.5,0.8-19.7,7.1-19.7,7.1l-14.5,2.9l-7.9,0.9l-10.2,1.2c0,0-13.3,0-18.2-2.1
	c-2.8-1.1-5.1-3.4-6.2-6.2l-1.6-3.8"/>
<path class="st7" d="M255.9,242.1c0,0,3.8-2.5,4.1-3.6l-1.3-3"/>
<path class="st7" d="M216.9,112l1.3,4.7c0,0,2.6,5.9,3.1,9.8s-1.3,10.2-1.3,10.2s-6.3,11.5-7.1,12.7l-8.4,10.7"/>
<path class="st7" d="M63.5,335.6c0,0,8.3,14,10.9,16.3l20.5,18.8c0,0,7,8.2,10.5,9.5s11.7,7,11.7,7l9.9,6.6"/>
<path class="st7" d="M110.4,383.8"/>
<polyline class="st7" points="153.9,455.8 149.5,446 144.3,433.8 142.3,427.7 141.2,397.6 "/>
<path class="st7" d="M438.4,454.8c0,0,31.6-23.6,35.5-24.6s14-7.5,16.7-9.5s5.2-5.9,7.5-5.6c1.5,0.2,3.1,0.2,4.6,0
	c3.4-2.6,7-4.9,10.8-7h6.2"/>
<path class="st6" d="M213.5,172.8l0.8-1.5c0.7-0.2,1.4-0.2,2.1,0c0.8,0.5,1.5,1.1,2,1.9l0.4,1.3l0.8,1.1v0.5l-4.1-0.5l-2.6-1.4
	L213.5,172.8z"/>
<path class="st10" d="M212.9,174.3l-1.4-1.1l1.3-1.1c0,0,3.2-0.3,3.7,1.1c0.3,0.8,0.9,1.6,1.7,2c-0.9,0.1-1.8,0.1-2.7,0L212.9,174.3
	z"/>
<path class="st10" d="M218.2,164.8c0,0-0.4-3,0.6-3.5c1-0.3,2.1-0.4,3.2-0.4c1.1,0.3,2.1,0.8,3,1.5c0.6,0.6,1.3,1.2,2,1.8l1.2,1
	l1.1,0.9l0.9,1.3c0.7,1.2,0.9,4.2,0.9,4.2v2.6c-0.1,0.5-0.2,1-0.5,1.4c-0.4,0.4-0.9,1.5-1.5,1.7l-1.5,0.9l1.8-1.6l0.5-1.3
	c0,0,0.5-2.3-0.2-3.2s-0.2-3.1-1.4-4s-3.6-2.9-3.6-2.9l-1.5-1.2l-1.2-1.3c-0.2-0.5-0.7-0.7-1.1-0.6c-0.1,0-0.1,0-0.2,0.1
	c-0.6,0.4-1.2,0.9-1.7,1.5L218.2,164.8z"/>
<path class="st7" d="M236.9,136.5l0.7,0.2l1.1,1.7l3.1,1.5h4.4l6.2,0.2c1.4,0.3,2.8,0.6,4.2,1.1l6.1,0.6l-6.8-5l-4.7-1.8l-4.6-1.9
	l-3-1.6l-1.1-0.6l-2.1-1.2c-0.3-0.2-0.6-0.3-1-0.4l-0.9-0.3l-1.4,0.2c-0.2,0-0.4,0.1-0.5,0.3c-0.1,0.2-0.1,0.5-0.1,0.7h-1.3
	c0.4-0.1,0.8,0,1,0.4c0,0-1.5,1.2-0.8,0.9c0.5-0.2,1-0.2,1.5,0L236.9,136.5L236.9,136.5z"/>
<path class="st10" d="M255.9,136.8c0.4,0.6,0.4,1.3,0,1.9c-0.7,0.8-1.5,1.4-2.5,1.7l3.2,0.9l6.1,0.6L255.9,136.8z"/>
<path class="st10" d="M238.5,129v9.4l-1.7-1.9v-5h-1.5c0,0,2.3-1.5,1.1-1.4s0.1-0.7,0.1-0.7L238.5,129z"/>
<path class="st7" d="M237.1,128.3c0,0,1-2.6,2.1-2.8s1.3-0.7,2.7,0s4.6,2.8,4.6,2.8l3.8,2.4l5.5,3.6l3.5,2.4l2.3,1.6"/>
<polygon class="st10" points="239.7,136.4 238.6,133.7 238.6,135.7 "/>
<path class="st10" d="M240.2,133l-1.6-1.3V129l1.8,0.7l-0.6,0.6c0.3,0.3,0.5,0.8,0.6,1.2c0.1,0.6,0.3,1.6,0.3,1.6h-0.5V133z"/>
<path class="st7" d="M12.3,455.8c-2.8-1.7-10.5-14.3-10.5-14.3s-1.2-9.3-1.2-13.3s7-18.5,7-18.5L19,391.8L43.4,360l10.5-13l9.6-11.4
	c-1.7-1.6-2.4-3.9-1.9-6.2l9.3-9.6l28-31.8c10.9-16.3,41.5-43.4,41.5-43.4l17.7-10.2l25.8-7.5h24.5l8.3-1.6l6.6-0.8h1.4l-2.8-8.3
	l-0.7-5.3l-1.3-3.1l-3.6-4.2l-0.9-3.9l0.3-3.8l1.1-2.1l-2.3-2.5c-0.6-0.7-1-1.5-1.3-2.4c-0.3-1.4-0.3-0.1-0.3-1.4
	c0.1-1.2,0.2-2.3,0.5-3.5c0.2-0.9,0.3-1.7,0.3-2.6c-0.2-1.7-0.4-3.4-0.8-5l-2.7-0.9c-1-0.6-1.9-1.3-2.6-2.2
	c-1.1-1.4-2.3-2.4-2.6-3.6s-1-4.7-1-4.7c-0.1-1.2,0-2.4,0.2-3.6l0.3-1.5v-5.1c0.1-1.7,0.3-3.3,0.7-4.9c0.7-2.9,1.6-5.8,2.7-8.7
	c0.8-1.7,3.1-7.8,3.1-7.8l2.1-3.9l0.8-1l-2.6,0.9l3-2.2c-1,0-2.1,0.2-3,0.6l3.2-2.3l0.2-2.3l-0.5-2.3c-0.3-0.3-0.5-0.6-0.5-1
	c-0.1-0.8-3.9-0.5-3.9-0.5l2.7-1.3l-3.5-1.4h4.4l-0.3-5.1c0.1-0.9,0.1-1.9-0.2-2.8c-0.5-1.8-1.8-5.5-1.8-5.5l-1.1-2.2l-0.5-1.9
	c0,0-0.3-0.2-0.2-1.4s0.1-2.1,0.5-2.4s0.8-2.9,0.8-2.9l2.6-10.3c0,0,3-10.2,4-12.5l3.7-8.5c0,0,2.2-8,2.9-10.6
	c0.4-1.9,0.7-3.8,0.9-5.7l0.4-2.7l1.2-1.2c0.8-0.7,0.6-2.8,1.6-4.2s0.8-2.6,1.7-3.2l4-3.3l2.3-1.2c0,0,2.9-8.8,3.2-8.6
	s6.3-2.5,6.3-2.5l7.1-6.3c0,0,13.9-3.2,9.5-1.5c-3.3,1.4-6.5,3.1-9.5,5l23.2-9.9l9.4-2.1l11.4-0.8h8.6c6-2,12.4-2.5,18.7-1.5
	c10.9,1.5,18.1,1.7,24.4,4.4s11.3,4.6,14.5,7.2s12.6,5.7,18.9,12.8c4.1,4.5,8.7,8.5,13.7,12l3.4-0.6V35c0,1.7,4.4-0.2,4.4-0.2
	l2.7,2.1l9.5,0.6c4.8,0.2,6.3-0.4,10.7,1.3s12.2,5.3,18.3,12s4.2,2.9,10.3,10.9c3.6,4.7,6,10.2,6.9,16c0,0,2.7,8.6,3.2,9.9
	s-1.7-3.8-2.9-4.8s5,16,4.4,18.9l-4.4-10.5c0,0,4.3,21.9,4.4,22.5s-4.2-11.6-4.2-11.6l3.4,20.4c0,0-1.3-11.1-4-13
	c0,0,3.6,14.1,3.8,22.7s-1.9,36.2-1.9,36.2s-1.1,14.5-2.9,18.9c0,0,1.9-15.5-1.9-24.2c0,0,1.9,20.4-0.4,30.7c0,0,1.3-22.1-2.7-27.5
	c0,0,7.6,24.6-1.3,43.5c0,0-1.9,14.9-7.1,22.3c0,0-6.3,16.4-9.9,22.1c-3.6,5.7-10.3,14.5-10.3,14.5l7.6,5.3l6.7,1.5l4.4,2l6.7,3.5
	l5.3,4.2l2.9,0.5l3.1,2.3l0.8,3.6l0.6,2.7c3,3.5,5.7,7.2,8.2,11.1l7.2,11.6c3.5,4.9,6.7,10,9.5,15.3c3.6,7.1,9.9,14.7,10.7,17.7
	s8.6,18.5,8.6,18.5l10.5,19.3l8,13l1.6,3.4c0,0-6.2,5.4-10.5,4.5l18.3,44.9"/>
<path class="st7" d="M359.5,196.3c0,0-5.4,14.8-3.9,20.2c0,0-0.5,9.5,1.8,16.9s11.5,13.6,11.5,13.6h8.6c0,0-0.9-0.6,2.7,0
	s7.2,3.9,7.2,3.9"/>
<g>
	<path class="st10" d="M374.2,329.3c-0.2,0.2-0.4,0.4-0.6,0.6C373.8,329.7,374,329.5,374.2,329.3 M379,255.5l-4.4,7.2
		C377.1,260.9,378.5,257.2,379,255.5 M397.9,206l-0.7,0.6C397.4,206.5,397.7,206.3,397.9,206 M461.6,179.2c-0.8,5.4-1.4,9.2-1.1,9.2
		c0.1,0,0.2-0.3,0.5-0.9C461.7,185.5,461.8,182.5,461.6,179.2 M459.2,173.3c0.1,3.9,0.2,7.5,0.4,7.5c0.1,0,0.1-0.4,0.2-1.3
		C460,177.3,459.7,175.2,459.2,173.3 M465,116.4c0.3,3,0.4,5.2,0.6,5.2c0,0,0.1-0.2,0.1-0.6C465.8,119.6,465.5,118,465,116.4
		 M465.9,109.8c0.3,1.8,0.5,2.9,0.6,2.9c0,0,0-0.1,0-0.4C466.5,111.7,466.3,110.8,465.9,109.8 M262.9,10c-0.1,0-0.4,0.1-0.9,0.3
		C262.8,10.2,263.1,10.1,262.9,10C263,10,263,10,262.9,10 M410.7,64.8L410.7,64.8l2.6,3.3L415,74c0,0,1.9,2.8,1.9,6.1
		c0,3.3,0.9,9.3,0.9,9.3s0.2,2.3,0.2,4.8v0.1c0,1.3-0.1,2.6-0.2,3.8c-0.6,3.5-0.7,8.5-0.7,8.5v6.1c-3.5-14.3-4.9-20-4.9-20l-4-13.1
		l-2.6-5.6v0l0.7-8.1L410.7,64.8 M316.2,0.7c-1.8,0-3.4,0.1-4,0.4l-6.8,1.6h-8.6l-11.4,0.8L276,5.6l-23.2,9.9c0,0,6.8-4.1,9.3-5.2
		c-2.5,0.5-9.3,1.2-9.3,1.7c0,0.6-7.1,6.3-7.1,6.3s-4.6,2.6-6,2.6c-0.1,0-0.3,0-0.3-0.1c0,0,0,0-0.1,0c-0.7,0-3.1,8.6-3.1,8.6
		l-2.3,1.2c-1.4,1-2.8,2.1-4,3.3c-0.6,1-1.2,2.1-1.7,3.2c-0.5,0.7-0.8,1.5-0.8,2.4c-0.1,1.4-1.9,3-1.9,3l-2.4,10.8
		c3-2.1,5.4-4.8,7.2-7.9l8.5-2.3l4.2-3.5c0,0-0.8-3.4,2-3.4c1,0,2.4,0.4,4.5,1.5c8,4.2,19.1,20.4,19.1,20.4s8.9,11.1,11.2,17.3
		c2.3,6.2,8.5,15.4,10,18.8c1.5,3.4-1.2,9.6,2.3,15.8c3.5,6.2,11.1,14.2,14.2,18.1c3.1,3.9,1.9,9.6,3.5,14.6c1.6,5,20,9.6,20,9.6
		s5.8-2.7,6.9-3.5c1.1-0.8,2.7-3.5,7.3-4.6c1.2-0.3,2.7-0.4,4.3-0.4c4.2,0,8.8,0.8,8.8,0.8c2.2,0.8,4.2,2.1,5.8,3.8
		c2.3,2.7,3.8,4.6,3.8,7.3s-0.8,8.8-2.3,10.4c-1.5,1.6-7.8,10.7-7.8,10.7l-3.4,6.3L342.9,207l-8,13.8l7.3-8.4c0,0-5.4,6.7-7.1,11.9
		c-1.7,5.2-3.4,13.6-3.4,13.6s3.8-13.4,6.5-16.8s12.4-15.9,12.4-15.9l6.3-11.1c0,0-4,7.5-4.2,14.2c-0.2,6.7,0,10.9,0,10.9
		s2.1-19.7,6.7-23c1.5-1.1,2.4-1.5,2.9-1.5c1,0,0.5,1.5,0.5,1.5s-4.2,2.5-4,5.9c0.2,3.4-2.1,9.6-2.1,9.6s4.6-7.1,4.4-9.8
		c-0.2-2.7,1.3-2.7,1.3-2.7s0.1,0,0.2,0c0.7,0,3.2,0.3,4.1,4c1,4.4,3.7,8.2,2.9,12.6c-0.8,4.4-0.6,7.9-2.9,11.1
		c-1.8,2.4-3.8,4.6-5.9,6.7c0,0,7-5.7,9-10.1c2-4.4,3.2-6.9,2.1-11.7c-1.1-4.8-2.9-11.5-4.4-12.6c-1.5-1.1,7.7-1.7,10.1-4.8
		c2.4-3.1,9.6-4,13-8.4c0,0,9-5.2,10.5-7.5s4.8-6.9,4.8-6.9l3.6-5.2l1.3-2.3l3.1-5.4c0,0-3.6,19.1-6.7,22.6c0,0-2.9,9.2-7.7,10.9
		c0,0,5.6-1.7,6.8-3.9c-1,2.6-5.7,14.8-8.3,17.7l4.3-3.4c-3.4,3.8-6.4,7.8-9,12.1c-3.4,5.9-9.2,17.4-9.6,28.1l-4.4,11.9
		c0,0-0.1,0.3-0.2,0.8l4.8-7.9c0,0,2.7-8.6,4.4-14.4c1.7-5.8,10.5-15.5,10.5-15.5s-6.3,16.1-7.3,18.6c-1,2.5-4.6,17.6-4.6,17.6
		s-5.7,9.4-6.5,14l-2.5,13.6l3.6-9.8c0,0-4.4,13.8-5.4,19.5c-1,5.7-0.2,14.2-0.2,14.2l-1.3,13c0,0,0.6,5.9-0.8,8.8
		c-0.1,0.2-0.2,0.3-0.1,0.3c0.1,0,5.9-11.5,6.2-19.7c0.2,3.9,0.2,10.7-1.2,14.3c-1,2.7-2.5,5.1-4.4,7.1c1.8-1.8,3.5-3.7,5-5.7
		c3.8-4.8,8-11.4,7.6-16.5c0,0,2.1,9.4-1.9,13c0,0-8,8-7.5,8c0,0,0,0,0,0c0.9-0.4,18.2-16.1,20.1-19.1s10.9-13.2,10.9-13.2
		l10.1-12.4l3.8-5.6l5.1-8.9l10.3-14.5l9.9-22.1c0,0,7.2-13.2,7.1-22.3c0,0,3.8-9.7,4-16c0.2-6.3,2.2-8.4-2.7-27.5
		c0,0,2.1,2.8,3.2,6.8c-0.1-4.7-0.1-10-0.1-10s2,8.5,2.5,15.9c1.2-8.4,3.1-20.5,3.5-28.2c0.7-13.3-0.5-35.5-2.7-40.6
		c0.6,1.2,1.8,3.5,2.6,6c-0.3-4.1-0.9-9.5-1.7-12.5c0.8,1.7,2,3.9,2.6,5.8c-0.6-4.1-1.7-11.4-2.6-15.6c1.4,3.2,3.5,7.7,3.5,7.7
		s-3.4-16.9-4.3-18.7l2.8,4.6l-3.2-9.9c0,0-1.4-6.8-3.1-9.9c-1.3-2.5-2.8-4.9-4.5-7.1c-1.4-1.7-7.4-8.4-8.9-9.2s-6.1-7.5-9.4-7.9
		l-5.3-3c0,0-4.6-2.5-6-2.5c0,0-0.1,0-0.1,0c-1-0.3-2.1-0.5-3.2-0.6l-8.5-0.2l-6.8-0.4l-2.7-2.1c0,0-2.4,0.9-3.3,0.9
		c-0.1,0-0.2,0-0.2,0c0,0-0.1,0-0.1,0c-0.7,0-1.8,1.2-1.8,1.2l-2.5,0.4l-4.2-3.2c-1-0.8-5.3-4.6-6.3-5.6c-1-1-4.9-5.6-6-6.1
		c-1.1-0.5-3.4-2.9-4.6-3.3l-9.6-5.4l-2.8-1.9c0,0-7.5-4.6-10.5-5.2l-5-2l-6-1.5L323.1,1C323.1,1,319.3,0.7,316.2,0.7"/>
</g>
<g>
	<path class="st10" d="M313.4,169.3c-1.6-9.7-1.5,8.6-1.5,8.6l-1.1-32.9l-0.9-2.3l6.6,5.1c0,0-1.5,11.8,0.5,17.5s-3.6-4.3-3.6-4.3
		v8.4V169.3z"/>
</g>
<path class="st10" d="M228.3,111.6h4.3l8.1,3.8l3.8,1.8l3.6,0.8l6.1,1.3l2.4,2h3.3l3.8,2.8h2c-1.1-0.6-2-1.3-2.8-2.3
	c-0.7-1.3-1.4-2.6-1.9-4l-1.4-1.3l-2-0.6c-1.5-0.5-4.1-1.1-4.1-1.1s-2.4-0.1-2.9-0.8l-2-2l-1.8-0.2l-3.6-1.2l-2.6-0.4l-2.8-1.1
	l-3.4-0.9c-1-0.3-2-0.6-2.9-1h-2.1c-0.6,0.4-1.1,0.8-1.5,1.3C227.7,109.5,227.8,110.6,228.3,111.6z"/>
<path class="st10" d="M209.9,101.2c0,0,0.5-1.4,2,0.1c1.2,1.4,2.2,2.9,3,4.5l2,3.3c0,0-2.4-6.3-2.6-6.6s-4.5-7-4.5-7l-0.5,2.4
	L209.9,101.2"/>
<path class="st10" d="M341.6,160.3c-0.9-0.9-1.4-2.2-1.3-3.5c0-1.5,0.2-2.9,0.7-4.3l3.7,3.9c1.2,1.1,2.5,2.1,3.9,2.9
	c2.6,1.5,4.7,1.5,5.3,3.6s1.1,3.2,0,4.5s-2.8,0-2.8,0l-3.6-2.1l-1.3-2.6l3.2-1.1l-3-1.2C346.4,160.4,342.7,161.9,341.6,160.3z"/>
<path class="st8" d="M240.2,132.7c0,0.3,0.2,0.5,0.5,0.5c0.2,0.1,0.5,0,0.7-0.2c0.1-0.2,0-0.5-0.2-0.7c-0.1-0.1-0.3-0.1-0.4,0
	C240.5,132.3,240.2,132.5,240.2,132.7z"/>
<path class="st10" d="M518.9,408.2l0.6,2.4c0,0,1.3,0.8,3.5-0.7c1.7-1.2,3.2-2.6,4.7-4c0,0-0.5-0.9-3.2,0
	C521.8,406.8,518.9,408.2,518.9,408.2z"/>
<path class="st10" d="M243.9,198.9c0,0-13.3,1.3-17.8,0s-9.4-5.2-9.4-5.2s6.1,3.2,7.8,3.6c0,0,0.8,0.6,3.8,0.8l10.9,0.4L243.9,198.9
	z"/>
<polygon class="st10" points="243.9,197.7 245.3,198.4 245.3,199.9 243.9,198.9 "/>
<path class="st7" d="M214.2,127.2l0.3,1.8l0.9,1c0.3,0.3,3,0,3,0l1.5-0.4v-3.7c-0.3-1.9-0.8-3.7-1.5-5.5c-0.4-1.1-5.1-3.6-5.1-3.6
	l-0.8,1.4l0.8-1.4l-0.8,1.4l0,0"/>
<polyline class="st10" points="214.4,125.4 214.3,126.6 214.2,127.1 211.2,127.7 214.4,125.4 "/>
<polyline class="st10" points="213.9,128.4 214.2,127.1 211.2,129.3 213.9,128.4 "/>
<path class="st10" d="M357.8,155.5c0,0,0.4,8.8,0,10.5s-1,3.5-1,3.5s2.8-3.8,3-4.9s1.1-1.5,0.8-3.5c-0.3-1.6-0.8-3.2-1.4-4.7
	L357.8,155.5z"/>
<path class="st10" d="M337,161.6c0,0,1,7,0,9.3s-3.9,4.4-3.9,4.4s-1.3,0.3-1.3,2.6s0.6,1.8,0.6,1.8c1.2,0.3,2.4,0.1,3.4-0.6
	c1.3-1.2,3.8-2.2,3.8-3.2v-3.2l3.6,1.2c0,0,2.3,1,2.9,0c0.5-1,1-2,1.4-3.1c0-1-0.3-2.1-0.9-2.9c-1-1.1,0.2-2.5-1.8-2.7
	s-5.8-2.7-5.8-2.7L337,161.6z"/>
<path class="st10" d="M343,150.8c0.7,1.2,1.7,2.3,2.7,3.2c1.1,0.7,5.5,3,5.5,3c0.1-1,0.1-2.1,0-3.1c-0.2-1.6,1.1-2.5-0.5-3.1
	s-4.7,0-4.7,0L343,150.8L343,150.8z"/>
<path class="st10" d="M226.2,228.2l-1.6-3.8c-1.5,0.9-2.8,2.2-3.6,3.8h-2.6c-3.2-0.1-1.3,30.3-1.3,30.3l-0.5,17.4v13.2
	c0,0,1.6,17.4,3.4,24.5c1.8,7.1,6.1,27.1,12.7,36.4s25.7,29.2,25.7,29.2s5.5,3.4,8.4,5c2.9,1.6,4.5,2.6,4.5,2.6s10.8-2.1,12.9-4.2
	c2.1-2.1,18.7-11.1,18.7-11.1s9.2-6.3,11.9-10.5c0,0,12.9-12.4,17.1-17.7c0,0,8.4-9,12.7-15.3l10.8-14.5l7.4-14.8
	c0,0,3.4-5.3,6.3-10.8s7.9-15.8,7.9-15.8l4.7-12.1v-7.1l-8-5.9c0,0,6.4,4.2,5.5,7.7c-0.9,3.5-0.9,6.1-3.5,13.5
	c-2.6,7.4-11.6,23.2-11.6,23.2l-4,8.2c-0.9,3.9-2.5,7.5-4.7,10.8c-4,6.1-10.7,14.5-10.7,14.5l-7.5,9.5l-7.9,8.7l-7.6,8.2l-10,10.5
	l-10.3,6.6l-8.7,5.8l-10.8,5.5c0,0-6.9,6.6-9,4.5c-2.1-2.1-7.4-4-11.9-7.6c-4.5-3.6-16.9-15.6-16.9-15.6c-3.5-3.9-6.5-8.1-9-12.7
	c-3.4-6.6-12.1-34.5-12.1-34.5s-5.5-21.1-4.5-33.2v-22l-0.1-24.7c0,0,1-2.2,2.4-2.4s1.2-2,2.8-2.4
	C224.5,228.9,225.4,228.6,226.2,228.2z"/>
<path class="st10" d="M371.4,376.6c-12.7,16.2-26.2,33.7-30.3,43.2c-2.7,6-6,11.8-9.9,17.1c0,0,13.2-12.6,20.1-21.6
	s23.1-14.4,28-21.1s17.5-20.7,20.2-27.9c2.7-7.2,8.1-21.1,13-29.7c4.9-8.6,12.6-21.1,17.1-23.8c0,0-9.9,5.4-14.8,11.2
	c-4.9,5.8-8.5,9.9-8.5,9.9s2.2-12.1,4.9-16.6s6.3-11.6,6.3-11.6s0.4-1.9-6.3,6.7c-6.7,8.6-12.6,14.8-14.8,21.6
	c-2.2,6.8-7.8,17.1-14.7,26.1C377.7,365.2,374.3,370.8,371.4,376.6z"/>
<path class="st10" d="M460.3,294.8c-11.2,13.9-15.7,25.6-15.7,25.6s-1.8,1.3-4.9,18.9c-3.1,17.6-7.2,37.3-7.2,37.3s-0.9,6.7-2.7,22
	s-7.2,36-7.2,36s-4,18.7,0,21.3c0,0,1.8-24.4,4.5-28.5s6.7-35.1,6.7-35.1s1.1-19.2,2.8-23.1c0,0,3.8-19.6,5.2-22.8
	c0,0,2-19,4.4-22.9c2.4-3.9,10.6-22.9,12.3-24.5C459.6,297.9,460.2,296.4,460.3,294.8z"/>
<path class="st10" d="M457.7,285.5c-6,6.1-12.8,16.5-18.9,27c-10,17.2-18.1,34.8-18.1,34.8l-12.2,36.4l-15.4,31.8
	c0,0,3.3-8.2-11.4,12.3c0,0,21.6-8.2,26.3-15.9c4.7-7.7,0.5,15.9,0.5,15.9l12.2-35.3l4.2-25.1l1.5-19l5.6-15.9c0,0,3-10.8,8.4-15.4
	L457.7,285.5z"/>
<path class="st10" d="M331.3,439c4.4,1.8,14.2,4.7,14.2,4.7l2,1.2l-10-1.6c0,0,5.5,3.2,7.1,3.5c1.7,0.1,3.4,0.1,5.1,0l12.6,4.3
	c0,0,4.7,2.2,5.9,2.2s3.9-1.4,6.1-1.2s6.2,0.2,6.2,0.2s4.1-1,7.2-2s7.1-1.6,10.8-2.4s6.9-4.7,6.9-4.7l-2.2-1.4c0,0,1.8,0.9,1.1,1.4
	l-3.7,3.1l-4.1,0.4l-5.6,1.4c0,0-3.4,1-5,1.3s-6.5,1.9-8.4,1.5s-6.3-0.2-6.8,0.5c-1,0.8-2.4,1-3.5,0.4c-1.5-0.7-7.8-3.5-8.4-3.5
	s-6.9-2.7-6.9-2.7L331.3,439z"/>
<path class="st10" d="M170.4,455.8c8.7-7.9,19.2-13.7,30.5-16.9L250,425l31.1-15.6c0,0,22.1-5.4,25.7-11.4s13.8-19.1,13.8-19.1
	l4.2-7.9c0,0,10.2-7.7,14.4-11.9c4.2-4.2,12-13.8,12-13.8s-6.6,25.1-12,32.9s-7.8,25.1-14.4,29.9s-28.7,19.6-28.7,19.6
	s-9.6,7.5-14.4,15.3l-8.4,3l-4.7-7.1l-4.3,7.1l-3.6,9.8l-7.8-14l-6,4.2l-7.2,7.1l-1.2,2.7H170.4z"/>
<path class="st10" d="M158,234.4"/>
<path class="st10" d="M164.5,234.4c0,0-3.9,3.3-6.5,12.5c-2.6,9.2-4.8,34.6-4.8,34.6l-3.5,13.3c0,0-4.1,24.8-5.8,29.1
	c-1.7,4.3-4.4,16.1-4.4,16.1s3-7.1,4.9-8.7c-1,7.5-1.1,15.1-0.3,22.6l2.2,17.3l0.3,10.2l-0.5,12l0.5,8.7c0,0,0,12,0.8,15
	s0.8-9.5,5.7-9.3l4.1-26.9l3.8-19.1l2.2-9.8c0,0,4.1-5.4,4.4-10.3c0.3-4.9,0-14.4,0-14.4l-1.9-4.9c1-3.5,1.6-7,2-10.6
	c0.4-5.2-2.3-36.2,0-36.5s-4.7-13.9-4.7-13.9l-0.5-15.2L164.5,234.4z"/>
<path class="st10" d="M178.8,234.4c0,0,6.8,13.8,6.5,22.3c-0.3,8.5,0,35.1,0,35.1v18.8l-1.6,15.4c0,0,3.3,30.6,8.7,40.4
	c0,0,1.1-18.6,5.2-20.8l-3.3-48.3l-0.8-17.4v-16.7l-0.8-9.5c0-1.6-4.6-12-3.3-15.8l1.4-3.8c0,0,0.5-4.1-5.7-1.9"/>
<path class="st10" d="M197.6,229.4c0,0-2.2,1.4-1.6,9.3c0.6,5.9,1.7,11.7,3.3,17.4l3,4.1v-28.7l2.2-3.3L197.6,229.4z"/>
<path class="st10" d="M139.6,255.8l-1.6,7.6c0,0,0.3-0.8-1.6,6.8s0,19.1,0,19.1l1.2,7.1l2.1,6.8v-23.7c0.9-2.3,1.5-4.8,1.6-7.3
	C141.2,268.6,139.6,255.8,139.6,255.8z"/>
<path class="st10" d="M121,329.9c0,0,3.1,18.1,7.4,24.8c4.3,6.7,10,19.5,10,19.5l1.2,4.8v2.4l-1.2-28v-7.9l-1.7-3.9l-7.7-2.1
	l-1.9-5.6L121,329.9z"/>
<path class="st10" d="M139.6,303.2v30.2l-1.2,12.1l1.2,17.2l1.6,25.9v9.1l-1.4,3l-13.8-6.5l1.3-10.7l3,0.8l5.2,0.5l1.4-3.5l-3.3-4.5
	l1.9-4.5v-5.9l-1.9-27.7l3-6.1l0.5-6.6c0,0-1.6,5-0.3-4.3S139.6,303.2,139.6,303.2z"/>
<path class="st10" d="M101.1,455.8c0,0-16.4-13.6-17-15.2s-10.5-17.3-10.5-17.3l-6-5.9l-8.8-5.7l-7.2-2.5l-5.3-1.2l-3.5-1.6
	c0,0,14,1.9,16.2,3.1s9,6,9,6l4,0.2l3.2-0.8l6.6-5.7l11.3-11.1l8-7.6l1.4-5.1l1-4.2l1.9-1.1l5,3.5l-3.9,6.1l-4.5,3.1l-13.4,16.6
	l-7.6,6l-3.3,2.5l-2.9,1.8l10.3,18.1L101.1,455.8z"/>
<polygon class="st10" points="213.3,119.5 209.9,119.4 212.6,118.1 "/>
<polygon class="st10" points="209.1,116.8 213.4,116.8 212.6,118.1 "/>
<path class="st7" d="M216.2,203.5c0,0,3.7,3.3,5.4,3.5s6.3-0.9,7.3-1.3l7.3-2.8l5.7-2.9l2-1.2c-1.6-0.6-3.3-0.9-5-1
	c-1.8,0.2-5.7-0.7-7.9-1.5c-1.9-0.6-3.8-1.4-5.4-2.6c-1.4-1-5.7-2.3-5.7-2.3h-3.1c-1.8,0-4.1-3.9-4.1-3.9"/>
<path d="M396.2,37.2c0,0,4.6,3.5,4.6,5.7s3.5,10.5,2.5,12.9c0,0,1.2,9.4,0.8,10.4l0.5-0.7l1.6-0.3l1.9-0.4l0.9-0.3
	c0,0,0.5-11.9,0-15.7s-3.1-11.7-3.1-11.7l-2.7-2.1l-3.5,0.9l-0.9-0.7l-0.4,1.7L396.2,37.2z"/>
<path d="M417.9,66.2c0,0,17.6,23.7,16.6,35.7s-3.1,36.4-3.1,36.4s1.4,38.2,1.6,47.1s-12.8,18.2-12.8,18.2s-1.4,2.3-3.6,11.1
	c-3,12.2-23.8,45.1-23.8,45.1s6.2-19.7,7-25.8l4.6-17.3c0,0,7.4-12.8,7.4-17.3c0,0-14.5,19.5-17.1,19.5c0,0,4.8-10.6,8.2-13
	s6.9-14.7,6.9-14.7s2.3-4.7,2.5-8.1s2.3-13.6,2.3-13.6s3.1-40.3,2-46.7s1.2-15.5,0.9-18.8s1.1-26.4-1.5-31.8
	c-1.6-3.2-4.1-5.9-7.2-7.7l-1.9-2.5L417.9,66.2z"/>
<path d="M285.4,45.4c0,0,11,14.5,13.7,26.4s14.5,37.3,14.5,37.3l9.5,24.5l7.2,4.8c0,0,13.9,9.3,3.1-6s-30.6-73.1-30.6-73.1
	L285.4,45.4z"/>
<path d="M257.6,28.8c0,0-9.6-3.6-15.1-0.1c0,0,3.1-5.7,7.1-5.3s24.2,7.4,25.1,9.5s5,12.5,5,12.5s-6.8-10.8-10.1-12.1
	S257.6,28.8,257.6,28.8z"/>
<path d="M413.6,118.3c0,0,8.7,18.9,5.6,24.8s-12.4,29.6-18.2,35.4s-29.6,16.6-29.6,16.6s35.7-42.9,37.2-49.9s1.3-30.6-1.2-35.1
	s-5-33.5-5-33.5L413.6,118.3z"/>
<path d="M354.5,12c4.6,3.1,20.1,10.2,23.5,16.7s13.2,11.7,13.2,11.7l11,2.6c0,0-18.9-9.2-18.2-11.7s-13.7-12-13.7-12L354.5,12z"/>
<path d="M365.9,27.5c0,0,4,1.4,7.8,3.1c3.8,1.7,6.2,3.1,6.5,4.3s23,8,23,8s-18.9-1.4-20.6-3.4s-2.5-1.7-7.3-4.3s-13.4-7.5-15.6-6.5
	S365.9,27.5,365.9,27.5z"/>
<path d="M403.7,46.9c-9.2,1.7-8.6,1.4-28.4,7.7l-9.5,3.7c0,0,11.6-2,14.4-3.4S403.7,46.9,403.7,46.9z"/>
<path d="M368.3,41.7c0,0,13.3,4,16.5,3.7s16-2.5,16-2.5l-10,4c0,0-8.8,1.7-9.6,0.9S368.3,41.7,368.3,41.7z"/>
<path d="M405.2,52.7c0,0-7.9-0.5-11.6,2.6s-12.4,14.6-12.4,14.6s-3.3,10.3-6.6,10.5s-33.8,6.1-33.8,6.1s34.5,0.2,36.4-2.2
	s4.8-14.2,9.6-18s4.7-8.2,9.3-9.7c3.3-1,6.7-1.5,10.1-1.7L405.2,52.7z"/>
<path d="M405.3,60.3c0,0-5.3,6.3-6.2,13.2S394.9,96,393,98.1s-8.2,19.5-8.2,19.5s11.1-16.5,11.9-20.6s3.3-20.9,3.3-20.9l6.1-10.5
	L405.3,60.3z"/>
<path d="M302.1,22.2c12.5-1.2,18.6-4.3,18.6-4.3s3.9,0.5,8,1.3s8.3,1.8,8.9,3s-6.7-1.2-9.1-0.8S310.8,20,310.8,20L302.1,22.2z"/>
<path d="M321.2,5.3c5.6-0.6,15.9,0.4,16.5,1.7s9.7,5,9.7,5c-3.3-0.4-6.6-1.2-9.7-2.4c-4.8-1.9-21.5-4.1-26.1-1.1L321.2,5.3z"/>
<path d="M347.3,45.4c-6.7,1.8-25.9,1.5-25.9,1.5s12.1,1.3,17.9,1.1s18.5-4.3,18.5-4.3L347.3,45.4z"/>
<path class="st6" d="M225,178.9c-2.3-0.6-4.6-1-6.9-1.3C220.3,178.5,222.6,178.9,225,178.9c3.3-0.2,2.5-0.7,2.5-0.7L225,178.9z"/>
<path class="st6" d="M283,53.9c3.8,4.5,14.4,17.1,13.2,20.2L283,53.9z"/>
<path class="st6" d="M261.2,35.2c4.7,3.7,14.5,17.5,14.5,17.5L261.2,35.2z"/>
<path class="st6" d="M260.5,13.9c1.3-0.1,9.7,2.8,12.3,6.1s7,12,7,12s-7.6-11.7-9.2-12.6L260.5,13.9z"/>
<path class="st6" d="M280.9,10.6c5.5-1.9,14.4-2.1,14.4-2.1s10-0.4,11.8,1c-3.2-0.3-6.4-0.3-9.6,0c-3.5,0.5-19.6,4.4-19.6,4.4
	s7.5-2.8,10.1-3.9S280.9,10.6,280.9,10.6z"/>
<path class="st6" d="M316.5,5c4.1-1.1,12.9-2.4,12.9-2.4s9.8,0.9,10.8,2.5c-3-0.8-6.1-1.2-9.2-1.2l-18.4,1.3h3.8L316.5,5z"/>
<path class="st6" d="M306.3,28.7c9,0.8,18.2,0.8,27.2,0l15.5-4.3c0,0-3.4,5.6-9.4,5s-26.9,2.8-26.9,2.8L306.3,28.7z"/>
<path class="st2" d="M335.5,13.9c10.4,5.4,18.9,4,18.9,4L342.9,16L335.5,13.9z"/>
<path class="st2" d="M347.5,39.9c8.2-2.2,19.6-2,19.6-2s-15.9,2-20.2,3.1l-9.9,0.9L347.5,39.9z"/>
<path class="st2" d="M327.8,73.1c4.5,0.9,12.7,0.8,12.7,0.8h5.6l-12,1.5L327.8,73.1z"/>
<path class="st6" d="M331.8,67.2c0,0,22.4,4.9,29.8,0c4.9-3.4,9.6-7.2,13.9-11.3c0,0-5.4,11.6-13.9,12c-5.9,0.2-11.8,0-17.7-0.7
	H331.8z"/>
<path class="st6" d="M345.6,100.3c0,0,27.9-1.8,30.7-7s5.5-10.8,5.5-10.8l-3.5,10.9l-9.1,5.8L345.6,100.3z"/>
<path class="st6" d="M398.1,103.7c0,0-3.3,20.5-10.7,24s-16,10.6-16,10.6l-6.8,4.7c0,0,17.5-6,20.1-10.7S398,112,398,112v-8.3H398.1
	z"/>
<path d="M347.9,72.4c0,0-13.3,3.2-18.8,1.3s-16.3-7.5-16.3-7.5L347.9,72.4z"/>
<path class="st6" d="M417.2,38.9c6.8,0.1,13.3,2.5,18.5,6.8c8.7,7.2,8.7,8.2,8.7,8.2l9.6,8.9c0,0,3.8,12,3.8,15.4S457,67.1,453.5,64
	l-12.9-11.4c0,0-4.3-8.8-9.7-9.7c-4-0.8-7.9-1.8-11.8-3l-6.2-1.5L417.2,38.9z"/>
<path d="M419.8,50.6c4.7,1.5,18.9,5.9,21.3,11.4c0.4,0.9,8,26.9,8,26.9l-2.1,11.4c0,0-1.8-22.3-4.7-27.1s-0.7-4.8-5-11.2
	S419.8,50.6,419.8,50.6z"/>
<path d="M425.1,66.1c0,0,16.6,27.6,16.3,37.6s-3.5,31.7-3.5,31.7l-3.5,17.1l5.8-13.2c0,0,5-26.2,5-28.3s-3.5-19.5-3.5-19.5
	s-9.2-17.6-11.2-21.2C429.4,68.1,427.5,66.6,425.1,66.1z"/>
<path class="st6" d="M430.1,219.9c-2.6,4.6-16.6,57.6-26.1,62.2c-6,3-11.3,7-15.9,11.9c0,0,3.4-3.4,9.9-9.3
	c6.5-5.9,16.1-18.3,16.1-18.3l5.4-19.8L430.1,219.9z"/>
<path class="st6" d="M435.2,157.9c0,0-2.2,16.5-5.1,21.9s-9.9,23.9-9.9,23.9s15.3-27,15-29S435.2,157.9,435.2,157.9z"/>
<path class="st6" d="M414.5,43.9c0,0,3.8-3,10.6,1.1s19.8,25.9,19.8,25.9S433,49.5,430.3,47s-13.1-5.3-13.1-5.3L414.5,43.9z"/>
<path class="st6" d="M454.1,93.3c0,0,7.9,18.4,3.6,32.2l-1.3,14.5c0,0,5.2-17.9,5.2-20.4S454.1,93.3,454.1,93.3z"/>
<path class="st8" d="M216.5,122.6c0,0.3,0.2,0.5,0.5,0.5c0.2,0.1,0.5,0,0.7-0.2c0.1-0.2,0-0.5-0.2-0.7c-0.1-0.1-0.3-0.1-0.4,0
	C216.8,122.2,216.5,122.4,216.5,122.6z"/>
</svg>
