<svg id="Layer_1" data-name="Layer 1" xmlns="http://www.w3.org/2000/svg" viewBox="0 0 207.3 58.8"><defs><style>.cls-1,.cls-2{fill:none;stroke:#fff;stroke-miterlimit:10;}.cls-1{stroke-width:3px;}.cls-2{stroke-width:8px;}.cls-3{fill:#fff;}</style></defs><title>student</title><path class="cls-1" d="M5,74.7H198.9a46,46,0,0,0-7.7,29.3,44.9,44.9,0,0,0,7.7,21.5H5A82.2,82.2,0,0,1,5,74.7Z" transform="translate(4 -70.2)"/><path class="cls-2" d="M4.6,125.5a74.4,74.4,0,0,1,0-51.7" transform="translate(4 -70.2)"/><path class="cls-3" d="M199,120H4.6c-5.8,0-5.8,9,0,9H199c5.8,0,5.8-9,0-9h0Z" transform="translate(4 -70.2)"/><path class="cls-3" d="M199,70.2H4.6c-5.8,0-5.8,9,0,9H199c5.8,0,5.8-9,0-9h0Z" transform="translate(4 -70.2)"/><path class="cls-3" d="M162.3,87.2H17.6a1.5,1.5,0,0,0,0,3H162.3a1.5,1.5,0,0,0,0-3h0Z" transform="translate(4 -70.2)"/><path class="cls-3" d="M178.7,98.2H13.6a1.5,1.5,0,0,0,0,3h165a1.5,1.5,0,0,0,0-3h0Z" transform="translate(4 -70.2)"/><path class="cls-3" d="M179.3,109.1H34.6a1.5,1.5,0,0,0,0,3H179.3a1.5,1.5,0,0,0,0-3h0Z" transform="translate(4 -70.2)"/></svg>