<svg id="Layer_1" data-name="Layer 1" xmlns="http://www.w3.org/2000/svg" viewBox="0 0 91.94 62.43"><defs><style>.cls-1{fill:none;stroke:#fff5aa;stroke-miterlimit:10;}.cls-2{fill:#fff5aa;}.cls-3{fill:#ffbfc1;}</style></defs><title>studenticon</title><path class="cls-1" d="M246.17,186.19h74.76a14.75,14.75,0,0,0-3,10.14,14.6,14.6,0,0,0,3,7.41H246.17A25.61,25.61,0,0,1,246.17,186.19Z" transform="translate(-238.47 -142.94)"/><path class="cls-2" d="M247.47,203.34a22.86,22.86,0,0,1,0-17.07c0.71-1.8-2.19-2.58-2.89-.8a25.32,25.32,0,0,0,0,18.66c0.7,1.78,3.6,1,2.89-.8h0Z" transform="translate(-238.47 -142.94)"/><path class="cls-2" d="M321,202.37H246a1.5,1.5,0,0,0,0,3H321a1.5,1.5,0,0,0,0-3h0Z" transform="translate(-238.47 -142.94)"/><path class="cls-2" d="M321,184.22H246a1.5,1.5,0,0,0,0,3H321a1.5,1.5,0,0,0,0-3h0Z" transform="translate(-238.47 -142.94)"/><path class="cls-1" d="M306.8,191H251" transform="translate(-238.47 -142.94)"/><path class="cls-1" d="M313.12,194.81H249.49" transform="translate(-238.47 -142.94)"/><path class="cls-1" d="M313.35,198.59H257.59" transform="translate(-238.47 -142.94)"/><path class="cls-1" d="M254.16,165.6h74.76a14.75,14.75,0,0,0-3,10.14,14.6,14.6,0,0,0,3,7.41H254.16A25.61,25.61,0,0,1,254.16,165.6Z" transform="translate(-238.47 -142.94)"/><path class="cls-2" d="M255.46,182.76a22.86,22.86,0,0,1,0-17.07c0.71-1.8-2.19-2.58-2.89-.8a25.32,25.32,0,0,0,0,18.66c0.7,1.78,3.6,1,2.89-.8h0Z" transform="translate(-238.47 -142.94)"/><path class="cls-2" d="M329,181.78H254a1.5,1.5,0,0,0,0,3H329a1.5,1.5,0,0,0,0-3h0Z" transform="translate(-238.47 -142.94)"/><path class="cls-2" d="M329,163.63H254a1.5,1.5,0,0,0,0,3H329a1.5,1.5,0,0,0,0-3h0Z" transform="translate(-238.47 -142.94)"/><path class="cls-1" d="M322.46,170.44H266.69" transform="translate(-238.47 -142.94)"/><path class="cls-1" d="M321.11,174.22H257.49" transform="translate(-238.47 -142.94)"/><path class="cls-1" d="M315.6,178H259.83" transform="translate(-238.47 -142.94)"/><path class="cls-1" d="M241.84,144.91H316.6a14.75,14.75,0,0,0-3,10.14,14.6,14.6,0,0,0,3,7.41H241.84A25.61,25.61,0,0,1,241.84,144.91Z" transform="translate(-238.47 -142.94)"/><path class="cls-2" d="M243.14,162.06a22.86,22.86,0,0,1,0-17.07c0.71-1.8-2.19-2.58-2.89-.8a25.32,25.32,0,0,0,0,18.66c0.7,1.78,3.6,1,2.89-.8h0Z" transform="translate(-238.47 -142.94)"/><path class="cls-2" d="M316.63,161.09H241.69a1.5,1.5,0,0,0,0,3h74.94a1.5,1.5,0,0,0,0-3h0Z" transform="translate(-238.47 -142.94)"/><path class="cls-2" d="M316.63,142.94H241.69a1.5,1.5,0,0,0,0,3h74.94a1.5,1.5,0,0,0,0-3h0Z" transform="translate(-238.47 -142.94)"/><path class="cls-1" d="M305.34,149.75H249.58" transform="translate(-238.47 -142.94)"/><path class="cls-1" d="M308.79,153.53H245.16" transform="translate(-238.47 -142.94)"/><path class="cls-1" d="M308.07,157.31H252.3" transform="translate(-238.47 -142.94)"/><path class="cls-3" d="M311.06,178.76v18.79l4.49-5.39a0.33,0.33,0,0,1,.57,0l4,5.36V178.76c0-1.05-1-.73-2.13-0.73h-4.81C312,178,311.06,177.71,311.06,178.76Z" transform="translate(-238.47 -142.94)"/></svg>