<svg id="Layer_1" data-name="Layer 1" xmlns="http://www.w3.org/2000/svg" viewBox="0 0 272.14 48.93"><defs><style>.cls-1{font-size:14px;fill:#fff;font-family:PT Sans;}.cls-2{white-space:pre;}.cls-3{letter-spacing:-1px;}</style></defs><title>studentex</title><text class="cls-1" transform="translate(0.48 11.9)">I<tspan x="4.07" y="0">’</tspan><tspan x="5.92" y="0">m a current student at Har</tspan><tspan x="163.85" y="0">v</tspan><tspan x="170.45" y="0">e</tspan><tspan x="177.25" y="0">y</tspan><tspan class="cls-2" x="183.27" y="0"> Mudd </tspan><tspan x="224.43" y="0">C</tspan><tspan x="231.94" y="0">oll</tspan><tspan x="247.61" y="0">e</tspan><tspan x="254.57" y="0">ge</tspan><tspan class="cls-3" x="269.2" y="0">,</tspan><tspan x="0" y="16.8">Joint Math-</tspan><tspan x="66.93" y="16.8">C</tspan><tspan x="74.44" y="16.8">ompu</tspan><tspan x="108.43" y="16.8">t</tspan><tspan x="113.02" y="16.8">er Scien</tspan><tspan x="160.9" y="16.8">c</tspan><tspan x="166.89" y="16.8">e Majo</tspan><tspan x="207" y="16.8">r</tspan><tspan class="cls-3" x="210.92" y="16.8">.</tspan><tspan class="cls-2" x="212.82" y="16.8"> I spea</tspan><tspan x="251.9" y="16.8">k</tspan><tspan x="0" y="33.6">English and </tspan><tspan x="73.68" y="33.6">K</tspan><tspan x="81.55" y="33.6">orean</tspan><tspan class="cls-3" x="115.53" y="33.6">,</tspan><tspan class="cls-2" x="117.16" y="33.6"> both</tspan><tspan x="148.37" y="33.6"> </tspan><tspan x="151.91" y="33.6">v</tspan><tspan x="158.51" y="33.6">er</tspan><tspan x="170.38" y="33.6">y</tspan><tspan class="cls-2" x="176.4" y="33.6"> fluentl</tspan><tspan class="cls-3" x="219.45" y="33.6">y</tspan><tspan class="cls-3" x="224.96" y="33.6">.</tspan></text></svg>