<?xml version="1.0" encoding="utf-8"?>
<!-- Generator: Adobe Illustrator 19.2.0, SVG Export Plug-In . SVG Version: 6.00 Build 0)  -->
<svg version="1.1" id="Layer_1" xmlns="http://www.w3.org/2000/svg" xmlns:xlink="http://www.w3.org/1999/xlink" x="0px" y="0px"
	 viewBox="0 0 75.5 75.5" style="enable-background:new 0 0 75.5 75.5;" xml:space="preserve">
<style type="text/css">
	.st0{fill:#AAFFCE;}
</style>
<g>
	<path class="st0" d="M30.2,51.5l-1.1-1.1l21-21.3l1.1,1.1l0,0l1.1,1.1l-21,21.3L30.2,51.5L30.2,51.5 M25.2,46.4l-1.1-1.1l21-21.3
		l1.1,1.1l0,0l1.1,1.1l-21,21.3L25.2,46.4L25.2,46.4 M43.8,19.6c-1,0-2.1,0.4-2.9,1.2L20.8,40.9c-0.8,0.8-1.2,1.8-1.2,2.9
		c0,1,0.4,2.1,1.2,2.9l8.3,8.3l0,0c0.8,0.8,1.8,1.2,2.9,1.2c1,0,2.1-0.4,2.9-1.2L55,34.9c0.8-0.8,1.2-1.8,1.2-2.9
		c0-1-0.4-2.1-1.2-2.9l-8.3-8.3C45.9,20,44.8,19.6,43.8,19.6 M43.8,16.6C43.8,16.6,43.8,16.6,43.8,16.6c1.8,0,3.6,0.7,5,2.1l8.3,8.3
		c1.4,1.4,2.1,3.2,2.1,5c0,1.8-0.7,3.6-2.1,5L37,57.1c-1.4,1.4-3.2,2.1-5,2.1c0,0,0,0,0,0c0,0,0,0,0,0c-1.8,0-3.6-0.7-5-2.1l1.1-1.1
		L27,57.1l-8.3-8.3c-1.4-1.4-2.1-3.2-2.1-5c0-1.8,0.7-3.6,2.1-5l20.1-20.1C40.2,17.3,42,16.6,43.8,16.6
		C43.8,16.6,43.8,16.6,43.8,16.6 M50,0L0,50l6.4,6.4c1.4-1.1,4-2.9,7.1-2.9c1.9,0,4,0.7,6,2.7l0,0c5.2,5.2,1.7,10.8-0.1,13.1
		l6.1,6.1l50-50l-6.1-6.1c-1.4,1.1-4.1,2.9-7.1,2.9c-1.9,0-4-0.7-6-2.7l0,0c-5.2-5.2-1.7-10.8,0.2-13.1L50,0"/>
</g>
</svg>
